<?xml version="1.0" standalone="no"?>
<!DOCTYPE svg PUBLIC "-//W3C//DTD SVG 1.1//EN" "http://www.w3.org/Graphics/SVG/1.1/DTD/svg11.dtd" >
<!--
2019-4-19: Created with FontForge (http://fontforge.org)
-->
<svg xmlns="http://www.w3.org/2000/svg" xmlns:xlink="http://www.w3.org/1999/xlink" version="1.1">
<metadata>
Created by FontForge 20190413 at Tue Apr 30 13:00:02 2019
 By Nick
All Characters are the property of inkle Ltd.
</metadata>
<defs>
<font id="AncientRunes" horiz-adv-x="512" >
  <font-face 
    font-family="Ancient Runes"
    font-weight="400"
    font-stretch="normal"
    units-per-em="1024"
    panose-1="2 0 5 3 0 0 0 0 0 0"
    ascent="819"
    descent="-205"
    x-height="58"
    cap-height="747"
    bbox="6 -190 933 890"
    underline-thickness="50"
    underline-position="-101"
    unicode-range="U+0020-E07A"
  />
    <missing-glyph />
    <glyph glyph-name="zero" unicode="0" horiz-adv-x="640" 
d="M233 -55c-45 15 -111 68 -131 105c-4 8 -15 29 -25 46s-19 37 -21 47s-8 30 -12 43c-4 10 -5 21 -5 29s1 14 5 14c1 0 2 -1 4 -3c3 -3 16 -26 28 -51c34 -66 35 -65 58 -93c48 -57 91 -82 142 -82c48 0 107 41 140 96c20 35 45 87 49 107c3 10 7 24 11 30s9 28 13 48
s8 42 12 47s7 24 10 41c5 35 23 56 47 56c18 0 46 -27 46 -45c0 -20 -17 -96 -32 -144c-16 -52 -73 -169 -93 -192c-48 -55 -63 -68 -115 -88c-23 -8 -67 -14 -99 -14c-14 0 -25 1 -32 3v0z" />
    <glyph glyph-name="one" unicode="1" horiz-adv-x="640" 
d="M232 -52c-34 9 -63 28 -91 56c-40 42 -79 108 -86 146c-3 12 -8 28 -12 34c-4 8 -7 17 -4 27l4 15l10 -14c5 -7 17 -26 25 -43s17 -31 19 -33s8 -11 12 -20c25 -44 53 -73 93 -95c25 -14 35 -16 71 -16c34 0 46 2 62 12c28 17 65 53 77 75c5 11 13 24 16 28
c13 23 32 66 36 82c3 11 8 25 12 34s9 30 13 49s8 43 12 55s10 32 13 44c5 23 18 35 39 35c5 0 10 -1 15 -2c22 -6 32 -17 32 -44c0 -9 -1 -19 -3 -32c-7 -43 -33 -136 -42 -153c-4 -5 -15 -31 -27 -55c-52 -112 -113 -165 -202 -185c-21 -5 -36 -7 -50 -7s-27 2 -44 7v0z
M252 93c-9 6 -20 20 -24 30c-3 7 -4 12 -4 17s2 11 5 19c12 28 43 48 74 52c6 1 11 1 15 1c10 0 14 -3 21 -12c5 -8 8 -15 8 -26c0 -5 -1 -11 -2 -18c-4 -33 -18 -54 -42 -66c-9 -5 -16 -8 -24 -8s-17 4 -27 11v0z" />
    <glyph glyph-name="two" unicode="2" horiz-adv-x="640" 
d="M196 -36c-76 36 -148 148 -160 248c-2 13 0 23 3 21s14 -22 26 -45c59 -119 128 -180 198 -180c37 0 73 17 109 50c12 12 29 30 34 41s12 23 15 27c20 33 47 106 56 150c4 15 10 40 15 59s13 41 15 53c3 22 18 35 39 35c6 0 12 -1 18 -3c21 -6 29 -14 29 -37
c0 -12 -2 -29 -7 -52c-18 -84 -30 -122 -59 -181c-37 -75 -53 -99 -91 -136c-45 -44 -79 -57 -155 -61c-13 -1 -23 -1 -32 -1c-25 0 -34 3 -53 12v0zM195 104c-15 10 -18 14 -18 32c0 24 8 35 51 58c40 22 66 39 120 81c30 23 45 31 52 31c2 0 3 0 4 -1c5 -4 5 -9 1 -18
c-20 -39 -155 -188 -170 -188c-4 0 -11 -1 -15 -3s-15 3 -25 8v0z" />
    <glyph glyph-name="three" unicode="3" horiz-adv-x="640" 
d="M228 -53c-35 12 -72 34 -93 58c-42 47 -80 115 -85 151c-2 12 -5 21 -8 23s-5 13 -5 25v24l12 -14c6 -7 17 -26 25 -43c19 -39 49 -82 82 -116c34 -34 74 -53 114 -53c18 0 37 4 54 13c31 16 68 52 85 81c31 57 46 89 50 107c3 11 6 25 10 31s11 29 15 49s10 48 14 61
s8 32 10 40c4 18 28 43 42 43c5 0 18 -8 27 -17c11 -11 15 -15 15 -29c0 -7 -1 -15 -2 -27c-4 -39 -28 -146 -40 -166c-4 -5 -14 -28 -26 -50c-55 -113 -88 -149 -162 -178c-25 -10 -69 -17 -101 -17c-14 0 -25 1 -33 4v0zM220 70c-8 4 -15 12 -15 16c0 5 -2 13 -2 18
c0 13 26 40 62 60c20 12 46 26 58 35s28 21 35 25s17 13 21 18s10 10 14 10s12 5 16 11c6 7 12 10 16 10c6 0 10 -4 10 -12c0 -14 -50 -77 -116 -146c-35 -37 -56 -53 -75 -53c-8 0 -16 3 -24 8v0zM241 238c-15 15 -19 22 -19 42s3 26 21 42c23 21 45 32 63 32
c14 0 26 -7 31 -22c2 -5 3 -13 3 -21s-1 -16 -2 -23c-4 -22 -8 -32 -24 -48c-14 -14 -26 -21 -38 -21c-11 0 -22 6 -35 19v0z" />
    <glyph glyph-name="four" unicode="4" horiz-adv-x="640" 
d="M228 -52c-74 17 -155 111 -179 210c-4 12 -7 29 -10 41c-2 8 -3 14 -3 19c0 6 2 10 4 10c3 0 7 -4 11 -13c28 -58 62 -118 90 -147c40 -44 84 -65 128 -65c60 0 119 41 159 123c24 48 44 103 51 138c5 28 26 105 31 125c3 8 11 18 22 23c9 4 14 6 20 6c4 0 9 -1 15 -3
c19 -8 28 -18 28 -43c0 -21 -7 -53 -20 -103c-17 -63 -73 -189 -99 -221c-33 -41 -71 -72 -104 -85c-27 -11 -73 -18 -109 -18c-13 0 -26 1 -35 3v0zM196 68c-15 10 -16 15 -16 32c0 25 12 40 64 69c60 35 72 42 113 75c24 20 41 30 49 30c5 0 7 -3 7 -7c0 -3 -1 -5 -2 -9
c-7 -24 -147 -179 -173 -192c-10 -5 -15 -8 -20 -8c-6 0 -11 3 -22 10zM222 233c-11 9 -19 25 -19 37c0 3 0 5 1 7c6 20 18 30 70 59s61 35 112 76c21 17 39 27 48 27c5 0 7 -3 7 -7c0 -15 -68 -98 -149 -180c-20 -20 -29 -25 -43 -25c-10 0 -23 2 -27 6v0z" />
    <glyph glyph-name="five" unicode="5" horiz-adv-x="640" 
d="M203 -38c-35 17 -74 53 -100 90c-20 29 -51 91 -51 103c0 4 -4 17 -8 29c-4 9 -5 18 -5 25c0 9 2 15 7 15c3 0 11 -16 22 -36c28 -53 53 -92 73 -107c10 -7 23 -20 29 -30c19 -29 63 -46 106 -46c19 0 39 4 56 12c20 9 29 15 29 20c0 2 -2 5 -5 7c-9 7 -93 24 -124 24
c-26 0 -63 6 -69 12c-1 1 -1 2 -1 3c0 6 21 14 49 18c19 2 58 9 86 14s70 12 91 15l40 3l16 26c9 14 16 32 16 37s6 20 12 32s12 36 16 55s9 41 13 52s9 28 9 39c0 13 5 25 17 38c11 13 23 19 33 19c13 0 25 -9 35 -28c4 -8 6 -13 6 -22c0 -8 -2 -19 -4 -36
c-21 -132 -82 -265 -155 -335c-44 -43 -83 -59 -155 -62c-10 0 -18 -1 -25 -1c-27 0 -35 4 -59 15v0z" />
    <glyph glyph-name="six" unicode="6" horiz-adv-x="640" 
d="M232 -52c-27 7 -61 29 -86 54c-28 28 -63 78 -69 99c-3 7 -5 16 -9 20c-8 11 -25 79 -25 95c0 3 0 4 1 4c7 0 30 -30 36 -48c12 -32 56 -97 71 -101c5 -2 11 -5 11 -8c0 -12 30 -38 53 -49c18 -8 38 -12 57 -12c22 0 44 5 63 15c18 9 25 13 25 17c0 1 -1 3 -3 4
c-9 8 -94 25 -127 25c-24 0 -63 11 -63 17c0 8 11 12 61 19c28 4 74 12 102 16s63 9 75 12c21 4 25 6 39 34c17 33 30 70 39 109c12 59 16 69 24 97c11 36 12 39 39 43c4 0 7 1 10 1c26 0 37 -15 37 -47c0 -43 -27 -144 -54 -201c-12 -28 -24 -51 -24 -53
c0 -3 -19 -33 -39 -62c-47 -68 -102 -98 -184 -102c-10 0 -19 -1 -28 -1c-15 0 -28 1 -32 3v0zM256 143c-19 9 -29 27 -29 47c0 11 3 23 10 34c12 20 55 46 77 46c14 0 19 -2 26 -20c4 -9 5 -15 5 -23c0 -7 -1 -15 -3 -27c-6 -31 -17 -47 -40 -59c-9 -5 -15 -7 -21 -7
c-7 0 -14 3 -25 9v0z" />
    <glyph glyph-name="seven" unicode="7" horiz-adv-x="640" 
d="M213 -44c-51 20 -121 96 -134 144c-3 7 -8 18 -12 22s-9 22 -11 37s-5 28 -8 30s-5 11 -5 21c0 15 1 16 8 9s15 -22 57 -98c5 -12 21 -28 33 -39s23 -21 23 -24c0 -11 30 -35 58 -46c15 -6 39 -11 51 -11c28 0 86 20 86 31c0 13 -36 25 -99 30c-81 6 -96 9 -96 18
s8 13 51 17c19 2 45 7 62 11s56 10 87 14s62 9 66 13c19 17 48 96 65 174c19 86 30 106 60 106c9 0 22 -5 31 -13s12 -13 12 -24c0 -6 -1 -14 -2 -26c-7 -68 -51 -200 -84 -252c-4 -4 -10 -16 -14 -25c-31 -57 -85 -100 -145 -120c-28 -9 -52 -13 -74 -13
c-23 0 -44 4 -66 14v0zM228 150c-10 9 -17 23 -17 36c0 4 1 8 2 12c4 8 18 23 37 35c17 12 37 26 45 31s16 10 19 10s19 12 39 26c62 45 70 49 79 49c5 0 8 -2 8 -6c0 -18 -44 -71 -132 -165c-28 -30 -35 -35 -52 -35c-11 0 -24 3 -28 7v0z" />
    <glyph glyph-name="eight" unicode="8" horiz-adv-x="640" 
d="M203 -40c-65 31 -118 101 -152 199c-9 26 -13 42 -13 53c0 5 1 9 3 13c1 2 2 4 4 4c3 0 8 -8 17 -25c9 -16 17 -34 20 -41c9 -28 55 -88 67 -88c4 0 7 -3 7 -7c0 -12 39 -45 64 -55c15 -6 32 -8 49 -8c21 0 41 3 60 11s28 15 28 21c0 3 -3 7 -9 10c-12 5 -76 16 -131 20
c-46 4 -55 7 -55 17c0 9 8 12 51 16c19 2 49 7 69 11s60 10 89 14c52 6 54 7 69 26c9 11 19 31 23 46s12 40 16 53s9 35 13 50c17 81 24 98 38 113c10 11 16 15 23 15c5 0 11 -2 19 -6c17 -8 25 -26 25 -55s-8 -69 -23 -121c-10 -34 -51 -127 -65 -150
c-4 -4 -10 -16 -15 -27c-12 -23 -56 -70 -80 -86c-33 -22 -91 -39 -137 -39c-35 0 -46 4 -74 16v0zM227 151c-4 4 -12 13 -16 22c-2 6 -4 11 -4 16c0 17 12 32 36 47c41 25 61 38 93 59c52 35 56 37 68 48c9 9 33 18 41 18c2 0 3 0 3 -1s-1 -2 -2 -3c-4 -4 -7 -11 -7 -15
c0 -10 -90 -118 -137 -166c-26 -26 -34 -30 -49 -30c-11 0 -22 1 -26 5v0zM216 325c-12 11 -16 16 -16 28c0 4 0 10 1 17c4 33 23 53 59 65c8 2 16 4 23 4c22 0 34 -14 34 -41c0 -8 -1 -16 -3 -26c-8 -40 -34 -63 -61 -63c-12 0 -25 5 -37 16v0z" />
    <glyph glyph-name="nine" unicode="9" horiz-adv-x="640" 
d="M215 -49c-39 12 -79 49 -120 110c-8 12 -15 24 -15 27s-6 15 -11 27s-11 34 -15 49s-6 31 -9 36c-4 6 -1 9 5 9c4 0 16 -14 26 -34c20 -41 35 -64 55 -91c9 -12 13 -17 17 -17c2 0 5 2 8 5c5 4 27 10 47 14s43 6 52 10s44 9 76 13c91 12 96 15 112 45c8 14 14 35 17 47
s8 28 12 34s8 29 12 49s10 45 14 56s9 26 9 31c0 13 23 33 40 33c7 0 19 -6 27 -13c11 -10 14 -16 14 -33v-8c-1 -42 -29 -143 -54 -196c-12 -26 -23 -48 -23 -50s-5 -10 -10 -18s-16 -25 -25 -37c-25 -37 -56 -66 -94 -84c-32 -15 -40 -17 -91 -18h-22c-24 0 -46 1 -54 4v0
zM331 10c11 6 17 13 17 19c0 5 -3 10 -10 14c-11 6 -94 12 -142 12c-17 0 -30 -1 -32 -3c-1 -1 -1 -2 -1 -3c0 -9 32 -32 60 -41c15 -5 34 -7 53 -7c22 0 43 3 55 9v0zM224 145c-9 7 -16 22 -16 35c0 6 2 12 5 16c6 10 53 40 59 40c4 0 11 6 16 11s15 11 21 14s23 13 39 25
c48 38 68 53 78 53c3 0 8 -4 8 -9c0 -13 -69 -99 -125 -157c-27 -28 -43 -40 -58 -40c-9 0 -17 4 -27 12v0zM234 301c-17 9 -24 23 -24 39c0 17 19 34 63 60c43 25 68 43 93 63c38 29 57 43 65 43c3 0 4 -2 4 -6c0 -2 0 -5 -1 -8c-4 -16 -27 -45 -100 -128
c-44 -49 -65 -68 -83 -68c-5 0 -11 2 -17 5v0z" />
    <glyph glyph-name="colon" unicode=":" horiz-adv-x="256" 
d="M91 -124c-8 4 -19 16 -24 24c-4 7 -7 11 -7 15s3 8 8 17c11 17 55 44 72 44c10 0 35 -25 35 -35c0 -4 -5 -19 -11 -32c-7 -17 -16 -27 -28 -33c-10 -5 -17 -8 -23 -8s-12 3 -22 8v0zM108 89c-8 9 -15 21 -15 26c0 28 32 59 65 64c4 1 7 1 10 1c8 0 13 -3 20 -10
c8 -7 13 -16 13 -26c0 -8 -3 -17 -8 -27c-14 -29 -33 -44 -52 -44c-11 0 -23 5 -33 16v0z" />
    <glyph glyph-name="semicolon" unicode=";" 
d="M439 -170c-7 3 -20 12 -27 19c-10 9 -14 21 -14 32c0 21 15 41 40 41c29 0 65 -36 65 -62c0 -3 0 -5 -1 -7c-6 -19 -18 -28 -37 -28c-7 0 -16 1 -26 5v0zM154 -148c-5 3 -7 7 -7 12c0 6 5 13 13 15c63 22 122 53 161 84c54 43 80 93 80 155c0 13 -1 26 -3 40
c-3 16 -4 26 -4 33c0 9 2 14 6 21c12 18 25 26 38 26c25 0 48 -30 51 -80v-12c0 -62 -26 -151 -59 -190c-7 -8 -11 -17 -11 -21c0 -17 -101 -70 -159 -82c-23 -6 -47 -8 -67 -8c-18 0 -33 2 -39 7v0z" />
    <glyph glyph-name="question" unicode="?" 
d="M226 -99c-10 7 -15 16 -15 26c0 11 6 23 18 32c11 9 21 13 29 13s16 -4 26 -13c9 -8 14 -13 14 -19s-6 -13 -19 -27c-14 -15 -22 -21 -31 -21c-6 0 -13 3 -22 9zM204 34c-8 11 -16 30 -18 43c-1 5 -1 9 -1 12c0 11 4 18 16 29c10 9 18 14 23 14c3 0 5 -3 5 -7
c0 -3 -1 -6 -2 -10c-1 -3 -1 -5 -1 -8c0 -15 13 -25 25 -25c8 0 16 5 20 15c8 22 12 53 12 84c0 53 -10 108 -29 134c-9 12 -16 25 -16 28s-13 22 -30 44c-49 64 -72 117 -72 171c0 16 2 31 6 47c12 49 43 83 89 95c15 4 27 6 37 6s18 -2 27 -4c33 -9 93 -64 110 -101
c6 -13 9 -20 9 -26s-3 -10 -8 -18c-7 -11 -16 -17 -27 -17c-17 0 -37 15 -59 43s-39 41 -58 41c-7 0 -15 -2 -23 -6c-19 -10 -29 -33 -29 -62c0 -31 11 -70 33 -108c14 -25 29 -52 33 -59s11 -18 16 -24s18 -33 29 -59c16 -40 19 -57 19 -112c0 -54 -2 -71 -17 -107
c-25 -59 -40 -73 -76 -73c-24 0 -31 3 -43 20v0z" />
    <glyph glyph-name="comma" unicode="," 
d="M259 -177c-36 5 -91 24 -114 37c-54 31 -85 67 -109 128c-12 28 -13 37 -13 95c0 70 5 86 28 96c5 2 11 3 16 3c13 0 26 -7 35 -22c7 -11 9 -20 7 -28c-4 -19 -7 -37 -7 -54c0 -58 24 -109 69 -145c22 -18 77 -44 130 -64c16 -5 26 -17 26 -27c0 -4 -2 -8 -5 -11
c-6 -6 -21 -10 -39 -10c-8 0 -16 1 -24 2v0z" />
    <glyph glyph-name="period" unicode="." horiz-adv-x="256" 
d="M75 65c-20 12 -36 39 -36 59c0 22 29 51 59 59c10 2 20 4 31 4c42 0 91 -17 91 -41c0 -15 -22 -41 -48 -54c-48 -26 -64 -35 -76 -35c-7 0 -12 3 -21 8v0z" />
    <glyph glyph-name="quotesingle" unicode="'" horiz-adv-x="256" 
d="M156 476c-22 18 -43 41 -56 62c-18 29 -35 97 -35 139c0 9 1 17 3 23c7 25 28 43 47 43c5 0 9 -1 13 -3c21 -11 30 -23 30 -48c0 -10 -1 -22 -4 -38c-2 -14 -3 -27 -3 -41c0 -46 13 -89 40 -129c7 -10 7 -14 3 -19c-3 -4 -6 -6 -10 -6c-5 0 -13 5 -28 17v0z" />
    <glyph glyph-name="quotedbl" unicode="&#x22;" 
d="M209 -168c-4 2 -6 6 -6 10c0 8 6 18 17 24c9 4 21 11 26 15c97 61 123 88 145 155c8 24 12 41 12 57c0 13 -3 26 -9 39c-7 15 -11 37 -11 55c0 11 2 21 5 27c3 5 12 11 20 15c6 3 11 4 16 4c17 0 29 -15 42 -47c12 -31 14 -44 14 -90c0 -43 -2 -58 -10 -76
c-5 -12 -10 -25 -10 -28c0 -16 -50 -76 -85 -103c-44 -33 -112 -60 -149 -60c-7 0 -13 1 -17 3v0zM122 -109c-6 3 -12 6 -12 9c0 10 30 36 46 40c8 2 17 5 19 8s10 10 22 15c32 17 81 67 88 93c3 11 5 25 5 40c0 28 -6 59 -15 75c-6 11 -9 20 -9 28c0 12 6 21 18 28
c6 3 12 5 18 5c14 0 28 -9 41 -26c15 -20 25 -66 25 -108c0 -16 -1 -32 -4 -45c-14 -68 -64 -117 -152 -147c-36 -12 -58 -18 -74 -18c-6 0 -11 1 -16 3v0z" />
    <glyph glyph-name="Q" unicode="Q" horiz-adv-x="568" 
d="M390 77c-48 -55 -104 -83 -169 -83c-61 0 -110 22 -144 67c-35 46 -53 112 -53 197v2c0 84 22 149 66 198c42 46 96 70 163 70c55 0 119 -8 192 -22l37 -7v-599c38 -6 60 -11 65 -12c10 -2 16 -8 16 -18v-45h-257v45c0 10 4 16 13 18s32 6 71 12v177zM250 67
c54 0 101 26 140 78v295c-45 11 -86 17 -122 17h-6c-68 -3 -112 -40 -133 -112c-7 -23 -11 -43 -11 -60v-27c0 -128 44 -191 132 -191z" />
    <glyph glyph-name="i" unicode="i" horiz-adv-x="256" 
d="M40 150c-5 9 -8 35 -8 84c0 31 1 71 3 121c8 180 22 256 54 281c12 9 23 13 34 13h7c20 -2 21 -4 23 -26v-5c0 -13 -3 -25 -7 -30c-16 -19 -47 -148 -48 -203c0 -18 -7 -57 -13 -89s-12 -70 -12 -82c0 -37 -14 -70 -25 -70c-3 0 -6 2 -8 6v0zM92 708c-6 11 -13 24 -13 28
s-8 18 -19 30c-13 15 -22 30 -24 49c-1 5 -1 10 -1 13c0 14 5 21 21 38c21 23 24 24 61 24c62 0 101 -32 114 -95c1 -3 1 -7 1 -11c0 -44 -54 -97 -106 -97c-20 0 -24 5 -34 21v0zM155 768c12 10 17 17 17 26c0 3 -1 6 -2 9c-4 17 -27 31 -48 31c-5 0 -10 -1 -15 -3
c-12 -5 -15 -11 -15 -40c0 -19 0 -34 3 -37s8 -4 14 -4c14 0 33 7 46 18z" />
    <glyph glyph-name="O" unicode="O" horiz-adv-x="540" 
d="M270 527c38 0 72 -6 103 -19s57 -31 78 -54s38 -51 49 -84s17 -69 17 -110s-6 -78 -17 -111s-28 -61 -49 -84s-47 -41 -78 -53s-65 -19 -103 -19s-71 7 -102 19s-56 30 -78 53s-38 51 -50 84s-17 70 -17 111s5 77 17 110s28 61 50 84s47 41 78 54s64 19 102 19zM270 64
c51 0 90 17 115 51s38 83 38 144c0 62 -13 110 -38 144s-64 52 -115 52c-26 0 -48 -4 -67 -13s-35 -22 -48 -39s-23 -37 -29 -61s-9 -52 -9 -83s3 -58 9 -82s16 -45 29 -62s29 -29 48 -38s41 -13 67 -13z" />
    <glyph glyph-name="o" unicode="o" horiz-adv-x="768" 
d="M279 -58c-124 36 -191 140 -191 297c0 80 12 121 43 165c30 42 91 85 120 85c6 0 9 -5 9 -11c0 -12 -8 -29 -22 -42c-62 -59 -89 -110 -89 -179c0 -21 3 -45 8 -71c14 -75 54 -135 108 -165c29 -16 36 -17 93 -17c55 0 65 2 94 16c50 25 87 75 125 165
c13 31 20 88 20 141c0 51 -6 98 -19 114c-7 9 -12 19 -12 23c0 12 -35 45 -66 64c-22 13 -31 16 -61 16h-15c-40 -1 -52 -4 -94 -22c-28 -12 -41 -17 -50 -17c-5 0 -10 2 -16 5c-18 10 -28 25 -28 40c0 14 9 29 26 39c22 13 94 31 154 37c8 1 14 1 21 1c18 0 33 -4 63 -13
c41 -12 52 -18 80 -45c40 -39 63 -88 75 -160c6 -35 9 -71 9 -106c0 -95 -22 -184 -63 -245c-37 -55 -101 -102 -161 -115c-24 -6 -55 -8 -85 -8c-29 0 -57 2 -76 8v0z" />
    <glyph glyph-name="equal" unicode="=" horiz-adv-x="768" 
d="M119 -107c-16 6 -27 24 -27 43c0 25 36 103 62 138c48 63 104 95 164 95c24 0 48 -5 73 -15c20 -8 40 -18 45 -22c16 -13 92 -38 116 -38c42 0 77 29 107 88c16 32 25 58 25 70c0 3 -1 5 -3 5c-1 0 -3 -1 -6 -3c-5 -4 -8 -10 -8 -14c0 -11 -66 -66 -93 -80
c-16 -8 -26 -12 -46 -12c-6 0 -13 0 -22 1c-44 3 -111 24 -119 37c-3 4 -11 9 -20 11s-22 9 -31 16c-12 9 -30 13 -49 13c-23 0 -48 -6 -66 -18c-41 -28 -70 -61 -93 -111c-19 -42 -37 -63 -55 -63c-9 0 -19 6 -28 19c-7 10 -10 16 -10 24c0 6 1 13 4 23
c11 39 44 108 64 128c43 44 94 75 141 85c14 3 27 5 40 5c34 0 66 -11 109 -33c28 -15 67 -32 86 -38c17 -5 26 -8 35 -8s18 3 34 9c40 14 48 24 89 104c25 49 34 61 45 61c13 0 19 -8 19 -40c0 -11 -1 -25 -2 -43c-1 -17 -2 -29 -2 -38c0 -14 2 -20 4 -20c4 0 13 -6 21 -14
s11 -12 11 -22c0 -8 -2 -20 -6 -41c-14 -79 -48 -137 -104 -173c-28 -19 -34 -19 -81 -19c-45 0 -54 2 -90 20c-21 12 -41 21 -43 24s-18 12 -36 21c-20 10 -38 15 -55 15c-46 0 -82 -39 -125 -124c-21 -44 -34 -62 -45 -66c-8 -3 -15 -5 -16 -5s-6 2 -13 5v0z" />
    <glyph glyph-name="asciitilde" unicode="~" horiz-adv-x="562" 
d="M373 314c22 0 40 7 52 22s19 33 19 57h74c0 -23 -3 -44 -9 -63s-15 -35 -27 -49s-27 -24 -44 -32s-37 -11 -59 -11c-18 0 -36 3 -53 8s-34 11 -50 18s-32 13 -47 19s-28 8 -40 8c-22 0 -40 -7 -52 -21s-19 -34 -19 -58h-74c0 23 4 44 10 63s15 35 27 49s26 24 43 32
s37 12 59 12c18 0 36 -3 53 -9s34 -11 50 -18s32 -13 47 -19s28 -8 40 -8z" />
    <glyph glyph-name="x" unicode="x" horiz-adv-x="480" 
d="M115 14c-18 8 -23 17 -23 45c0 27 9 35 68 68c35 19 51 29 51 42c0 11 -11 25 -33 51c-44 51 -61 74 -61 93c0 7 3 14 8 22c10 16 28 26 47 26c24 0 36 -11 50 -43c37 -83 51 -106 58 -106c4 0 21 11 35 23c23 19 46 32 55 32c1 0 2 0 3 -1c0 0 1 -1 1 -2
c0 -8 -16 -35 -38 -63c-18 -22 -27 -39 -27 -54c0 -9 3 -18 10 -28c12 -18 29 -54 29 -63c0 -1 -1 -2 -1 -2s-1 -1 -2 -1c-7 0 -33 18 -50 36c-11 11 -18 18 -27 18c-12 0 -26 -14 -53 -45c-33 -38 -53 -54 -75 -54c-8 0 -16 2 -25 6v0z" />
    <glyph glyph-name="numbersign" unicode="#" horiz-adv-x="582" 
d="M401 217l-43 -217h-42c-8 0 -15 3 -20 9s-8 13 -8 22c0 1 1 3 1 4v4l37 178h-127l-36 -182c-3 -13 -8 -22 -16 -27s-16 -8 -26 -8h-41l44 217h-75c-8 0 -14 1 -18 5s-7 11 -7 21v5s1 4 1 6l4 30h105l33 167h-119l7 37c2 10 6 17 12 22s16 8 29 8h81l37 183
c2 10 7 18 14 24s16 9 26 9h41l-43 -216h126l43 216h41c9 0 15 -3 21 -8s9 -12 9 -20c0 -3 -1 -5 -1 -7l-37 -181h108l-6 -39c-2 -10 -7 -17 -13 -22s-15 -6 -28 -6h-71l-33 -167h91c8 0 15 -2 19 -6s7 -11 7 -21v-5s-1 -4 -1 -6l-5 -29h-121zM209 284h126l34 167h-127z" />
    <glyph glyph-name="asciicircum" unicode="^" horiz-adv-x="482" 
d="M212 734h59l183 -331h-66c-6 0 -11 2 -15 5s-7 7 -10 12l-100 181c-4 8 -9 15 -12 22s-6 15 -8 22c-5 -15 -11 -29 -19 -44l-100 -181c-3 -5 -6 -9 -10 -12s-9 -5 -16 -5h-69z" />
    <glyph glyph-name="m" unicode="m" 
d="M361 -100c-19 13 -78 32 -99 32c-10 0 -40 -6 -67 -12c-23 -6 -35 -8 -44 -8c-8 0 -11 2 -17 8c-11 11 -10 12 2 25c7 8 29 23 50 33c26 13 55 19 85 19s61 -7 88 -20c45 -22 60 -37 62 -63v-7c0 -12 -3 -13 -22 -15h-4c-12 0 -27 4 -34 8v0zM176 607
c-42 19 -69 51 -69 79c0 19 8 30 21 30c11 0 27 -8 48 -24c27 -21 36 -25 62 -25h9c20 1 52 6 70 12c16 5 29 7 39 7c13 0 21 -4 21 -13c0 -5 -3 -13 -11 -22c-16 -19 -33 -27 -85 -43c-27 -9 -45 -13 -60 -13s-28 4 -45 12v0z" />
    <glyph glyph-name="M" unicode="M" horiz-adv-x="911" 
d="M194 446c44 54 92 81 146 81c35 0 64 -10 86 -29s37 -46 47 -79c14 36 36 63 68 82c28 17 58 26 90 26s59 -4 80 -13s39 -21 54 -38c30 -34 46 -84 46 -146v-255c33 -6 52 -11 58 -12c11 -2 16 -8 16 -19v-44h-165v330c0 41 -9 72 -27 93s-43 31 -77 31
c-31 0 -57 -10 -78 -31c-22 -22 -34 -53 -34 -93v-255c6 -1 26 -5 59 -12c10 -2 15 -8 15 -19v-44h-165v330c0 83 -32 124 -98 124c-42 0 -81 -22 -116 -67v-312l27 -6c18 -4 29 -5 32 -6c11 -2 15 -8 15 -19v-44h-239v44c0 11 6 17 16 19l58 12v369c-33 6 -52 11 -58 12
c-10 2 -16 8 -16 19v44h74h54c13 0 22 -6 25 -19z" />
    <glyph glyph-name="P" unicode="P" horiz-adv-x="569" 
d="M175 438c49 60 108 90 175 90c61 0 109 -23 143 -68c36 -47 53 -112 53 -197c0 -78 -20 -142 -60 -192c-41 -52 -93 -78 -156 -78s-113 20 -150 61v-155c1 0 10 -2 28 -5s27 -6 30 -7c10 -2 15 -8 15 -19v-44h-238v44c0 11 5 17 15 19l59 12v545c-33 6 -53 11 -59 12
c-10 2 -15 8 -15 19v44h74h54c13 0 21 -6 24 -19zM180 125c30 -41 71 -62 120 -62s87 18 113 52s39 84 39 148c0 128 -45 191 -133 191c-54 0 -99 -26 -139 -78v-251z" />
    <glyph glyph-name="p" unicode="p" 
d="M44 -98c-3 3 -5 10 -5 18c0 16 6 39 14 58c8 16 20 42 27 58c29 65 85 174 105 203c30 45 27 41 127 153c54 60 76 111 76 177c0 47 -2 55 -17 70c-12 12 -33 18 -55 18c-37 0 -77 -16 -83 -40c-2 -6 -2 -14 -2 -21c0 -25 8 -54 19 -66c13 -14 18 -31 18 -46
c0 -25 -13 -46 -34 -46c-4 0 -8 1 -13 3c-28 11 -78 103 -83 154c-1 6 -1 11 -1 17c0 37 16 63 53 88c28 19 36 21 100 23c13 0 23 1 32 1c37 0 48 -4 77 -19s44 -28 62 -54c17 -24 21 -33 21 -52c0 -7 0 -14 -1 -23c-9 -109 -64 -206 -200 -354
c-73 -79 -121 -145 -163 -225c-14 -26 -29 -52 -34 -58s-10 -18 -13 -26c-3 -10 -10 -15 -17 -15c-3 0 -7 1 -10 4v0z" />
    <glyph glyph-name="b" unicode="b" horiz-adv-x="768" 
d="M149 -109c-32 6 -74 30 -96 55c-8 9 -20 33 -29 54c-10 23 -13 37 -13 56c0 7 0 14 1 23c7 72 40 125 145 231c75 76 139 125 263 207c21 14 74 50 118 80s90 59 102 65s37 20 55 30c21 11 45 18 57 18c6 0 9 -1 9 -4c0 -20 -193 -182 -396 -332
c-80 -59 -170 -144 -202 -192c-32 -47 -47 -84 -47 -115c0 -21 6 -39 19 -55c17 -22 23 -26 46 -26c20 0 32 5 45 18c11 11 15 17 15 29c0 5 -1 11 -2 20c-2 18 -10 40 -17 50c-14 18 -20 36 -20 57c0 6 1 13 2 20c3 18 9 25 26 31c8 3 15 4 22 4c37 0 67 -35 91 -106
c9 -28 14 -50 14 -70c0 -19 -4 -35 -12 -54c-26 -60 -91 -98 -160 -98c-12 0 -24 2 -36 4v0z" />
    <glyph glyph-name="B" unicode="B" horiz-adv-x="578" 
d="M555 263v-2v-1c0 -42 -6 -80 -18 -113s-28 -61 -48 -84s-44 -40 -72 -52s-59 -18 -91 -18c-92 0 -229 29 -229 29v8v74v576c-12 2 -57 9 -65 11c-9 2 -16 10 -16 19v44h81h3h89v-310c22 25 46 45 74 60s59 23 95 23c30 0 58 -6 82 -17s45 -28 62 -50s30 -50 39 -83
s14 -71 14 -114zM420 115c13 17 24 37 31 61c7 23 10 50 10 79v8c0 34 -3 63 -9 87s-15 43 -26 59s-25 28 -41 35s-35 10 -56 10c-30 0 -56 -6 -78 -20s-43 -33 -62 -58v-121v-130v-44c14 -3 57 -14 102 -17h20h6c20 1 39 5 56 13c19 9 34 21 47 38z" />
    <glyph glyph-name="Z" unicode="Z" horiz-adv-x="472" 
d="M102 519h333v-39c0 -12 -4 -24 -13 -35l-280 -374h231c3 42 4 64 5 68c2 9 7 13 16 13h37v-152h-397v38c0 11 4 22 13 33l282 376h-221c-3 -38 -5 -58 -6 -62c-2 -9 -6 -13 -15 -13h-37v147h52z" />
    <glyph glyph-name="z" unicode="z" horiz-adv-x="640" 
d="M53 -111c-16 6 -28 24 -28 44c0 14 9 26 39 51c105 89 152 135 152 147c0 16 -20 24 -92 38c-55 11 -78 25 -78 48c0 12 38 48 129 123c73 60 141 128 195 195c13 16 23 25 31 25c4 0 7 -3 10 -7c0 -1 1 -2 1 -3c0 -14 -27 -71 -55 -113c-11 -17 -44 -55 -73 -85
c-62 -64 -87 -94 -87 -110c0 -9 8 -14 23 -19c57 -18 124 -47 131 -57c3 -4 4 -8 4 -12c0 -14 -16 -32 -56 -69c-25 -23 -70 -64 -100 -92c-93 -87 -115 -107 -133 -107c-5 0 -9 2 -13 3v0zM238 -58c-8 6 -15 16 -15 23s26 34 57 62c80 70 127 124 127 142
c0 19 -17 28 -97 53c-33 10 -61 21 -63 24c-1 1 -1 3 -1 4c0 15 26 48 54 69c55 40 176 167 214 223c7 11 17 26 23 34s16 25 24 38s24 34 36 47s17 19 21 19c2 0 3 -2 5 -6c1 -2 1 -4 1 -6c0 -8 -2 -19 -7 -29c-6 -13 -11 -28 -11 -33c0 -13 -40 -90 -62 -122
c-42 -60 -85 -115 -123 -154c-24 -25 -34 -37 -34 -44c0 -2 1 -3 2 -4c13 -10 66 -31 103 -39c36 -8 57 -28 57 -52c0 -3 0 -7 -1 -10c-3 -10 -19 -31 -36 -47s-52 -47 -77 -70c-60 -56 -130 -114 -148 -124c-10 -5 -17 -8 -24 -8c-8 0 -16 3 -25 10v0z" />
    <glyph glyph-name="k" unicode="k" 
d="M423 -50c-37 42 -111 153 -147 223c-16 30 -32 57 -36 57c-5 0 -19 -20 -33 -44c-40 -72 -121 -194 -141 -212c-9 -8 -20 -13 -26 -13h-3c-7 3 -11 16 -11 32c0 18 5 39 13 55c7 13 15 35 18 48s11 36 18 51s23 52 36 82s32 69 44 88s27 44 33 55c10 17 74 115 130 197
c22 32 51 58 72 63c4 1 7 2 10 2c9 0 16 -5 29 -18c14 -14 20 -26 20 -38c0 -14 -9 -29 -29 -48c-16 -15 -45 -51 -63 -79c-28 -42 -32 -53 -32 -78v-11c1 -38 5 -49 76 -199c12 -25 22 -50 22 -55s4 -16 9 -23s14 -29 20 -48s16 -45 22 -60c5 -12 8 -24 8 -34
c0 -15 -6 -25 -18 -25c-7 0 -25 15 -41 33v-1z" />
    <glyph glyph-name="K" unicode="K" horiz-adv-x="592" 
d="M548 63c11 -2 16 -8 16 -19v-44h-97c-13 0 -24 6 -34 18l-170 212c-5 7 -11 12 -16 14s-13 4 -23 4h-25v-173c4 -1 23 -5 58 -12c10 -2 15 -8 15 -19v-44h-239v44c0 11 6 17 16 19l58 12v604c-33 6 -52 11 -58 12c-10 2 -16 8 -16 19v44h74h92v-444h23c12 0 23 5 32 15
l117 125c-3 1 -8 1 -12 2c-8 1 -12 3 -16 4c-11 2 -16 8 -16 19v44h127h83h6v-44c0 -11 -4 -17 -13 -19s-30 -6 -64 -12l-120 -129c-10 -13 -20 -22 -30 -27c12 -8 22 -18 31 -32l143 -181l27 -6c18 -4 28 -5 31 -6z" />
    <glyph glyph-name="l" unicode="l" horiz-adv-x="768" 
d="M416 -98c-19 10 -58 38 -88 63c-48 40 -57 44 -90 47c-5 0 -10 1 -15 1c-20 0 -35 -5 -60 -16s-43 -17 -58 -17c-13 0 -23 5 -30 15c-7 9 -10 18 -10 27c0 26 28 48 85 70c31 12 45 16 71 16c10 0 22 -1 37 -2c13 -1 24 -2 33 -2c40 0 55 11 101 53c6 6 32 28 57 50
s45 44 45 49s-8 12 -18 14s-30 8 -43 14s-40 14 -61 17c-22 4 -43 12 -51 20c-6 6 -10 13 -10 20c0 19 27 44 98 97c89 67 167 140 223 207c26 31 58 56 70 56c1 0 2 0 3 -1s1 -2 1 -3c0 -13 -26 -63 -61 -117c-22 -34 -67 -88 -108 -129l-71 -72l19 -15
c11 -9 35 -20 54 -26c50 -15 88 -39 95 -60c2 -5 3 -9 3 -12c0 -15 -15 -29 -65 -71c-141 -118 -172 -147 -172 -162c0 -20 68 -71 100 -81c11 -3 25 -5 40 -5c6 0 13 0 19 1c36 5 64 28 110 91c15 20 29 36 32 36c4 0 6 -5 6 -12c0 -10 -4 -24 -11 -29
c-6 -5 -10 -14 -10 -21c0 -18 -61 -91 -93 -111c-24 -16 -36 -18 -86 -18c-49 0 -62 3 -91 18v0z" />
    <glyph glyph-name="L" unicode="L" horiz-adv-x="296" 
d="M257 63c11 -2 15 -8 15 -19v-44h-239v44c0 11 6 17 16 19l58 12v604c-33 6 -52 11 -58 12c-10 2 -16 8 -16 19v44h165v-679c33 -6 53 -11 59 -12z" />
    <glyph glyph-name="v" unicode="v" horiz-adv-x="768" 
d="M20 -102c-5 10 -9 17 -9 27c0 23 17 60 73 179c8 17 23 49 34 75s28 62 38 83s18 42 18 46s7 23 15 41c22 50 49 140 98 327c21 79 46 115 82 115c8 0 16 -2 25 -5c21 -8 59 -52 74 -88c28 -61 61 -149 71 -185c46 -164 63 -235 68 -280c4 -41 22 -73 40 -73
c4 0 20 15 39 34c21 23 37 33 50 33c7 0 13 -3 18 -10c2 -2 2 -5 2 -9c0 -20 -21 -65 -64 -135c-57 -95 -68 -109 -79 -109c-22 0 -40 16 -44 40c-2 13 -11 55 -21 92c-19 73 -44 171 -58 237c-4 23 -14 54 -19 71s-17 47 -22 68c-14 53 -37 115 -56 153
c-10 20 -15 28 -20 28c-2 0 -5 -1 -7 -3c-5 -4 -10 -16 -10 -22s-8 -32 -16 -58s-26 -81 -39 -124s-28 -95 -36 -116c-45 -127 -56 -154 -69 -182c-8 -17 -14 -36 -14 -41s-8 -29 -19 -52c-34 -74 -46 -101 -55 -128c-11 -33 -34 -52 -55 -52c-13 0 -25 7 -33 23v0z" />
    <glyph glyph-name="V" unicode="V" horiz-adv-x="610" 
d="M556 519h35v-44c0 -11 -5 -17 -15 -19c-4 -1 -20 -5 -50 -11l-181 -445h-83l-182 445c-6 1 -15 3 -28 6s-21 5 -22 5c-10 2 -15 8 -15 19v44h232v-44c0 -11 -5 -17 -15 -19c-6 -1 -25 -6 -57 -12l110 -278c6 -15 12 -40 19 -73c8 33 15 57 21 73l110 278
c-8 2 -27 6 -58 12c-10 2 -16 8 -16 19v44h195z" />
    <glyph glyph-name="W" unicode="W" horiz-adv-x="889" 
d="M639 519h231v-44c0 -11 -5 -17 -15 -19c-4 -1 -12 -2 -26 -5s-22 -5 -25 -6l-144 -445h-72c-9 0 -16 5 -19 17l-114 352c-3 8 -6 16 -8 25s-3 17 -4 23c-2 -9 -3 -17 -5 -25s-4 -15 -7 -23l-116 -352c-4 -12 -11 -17 -21 -17h-69l-144 445c-3 0 -8 2 -17 4
c-20 4 -31 6 -34 7c-10 2 -16 8 -16 19v44h232v-44c0 -11 -5 -17 -16 -19c-6 -1 -25 -6 -56 -12l83 -278c7 -31 11 -54 13 -70c3 14 10 37 20 70l110 336c4 12 12 18 25 18h39c13 0 22 -6 26 -18l108 -336c4 -15 9 -38 17 -70c4 24 9 47 16 70l84 278l-60 12
c-11 2 -16 8 -16 19v44z" />
    <glyph glyph-name="e" unicode="e" 
d="M60 -80c-1 2 -1 4 -1 6c0 13 18 25 73 54c108 57 150 101 172 183c5 18 7 33 7 46c0 24 -8 42 -25 58c-12 11 -20 16 -25 16c-6 0 -10 -5 -13 -14c-4 -9 -2 -15 6 -25s11 -21 11 -32c0 -27 -22 -53 -53 -53c-26 0 -57 20 -71 47c-6 13 -9 31 -9 50c0 24 4 49 13 69l13 30
l-11 21c-20 35 -31 81 -35 141c-1 16 -2 27 -2 36c0 20 4 27 12 40c11 17 23 25 37 25c5 0 11 -1 17 -4c13 -5 20 -15 20 -40c0 -13 -2 -29 -5 -51s-4 -42 -4 -60c0 -39 6 -69 17 -80c9 -9 19 -11 46 -11c52 0 80 -16 108 -60l23 -36v-76c0 -71 -2 -80 -16 -115
c-28 -67 -98 -128 -174 -151c-11 -4 -31 -9 -43 -14c-16 -6 -37 -9 -54 -9c-18 0 -32 3 -34 9v0z" />
    <glyph glyph-name="E" unicode="E" horiz-adv-x="504" 
d="M264 527c31 0 60 -6 86 -16s49 -25 68 -45s34 -44 45 -73s16 -61 16 -98c0 -14 -1 -24 -4 -29s-9 -7 -18 -7h-345c1 -33 5 -61 13 -85s20 -45 34 -61s31 -28 51 -36s42 -12 67 -12c23 0 42 2 59 7s31 12 43 18s22 12 30 17s15 8 21 8c8 0 13 -3 17 -9l26 -33
c-11 -14 -25 -26 -41 -36s-32 -19 -50 -25s-37 -11 -56 -14s-38 -5 -57 -5c-36 0 -69 6 -99 18s-56 30 -78 53s-40 53 -52 87s-18 74 -18 119c0 36 6 70 17 101s27 59 48 82s46 41 76 54s63 20 101 20zM266 460c-44 0 -79 -13 -104 -38s-41 -61 -47 -106h282
c0 21 -2 40 -8 58s-15 33 -26 46s-25 22 -41 29s-35 11 -56 11z" />
    <glyph glyph-name="S" unicode="S" horiz-adv-x="420" 
d="M238 527c36 0 81 -9 135 -27v-37v-96h-41c-10 0 -15 4 -17 14c0 1 -2 24 -6 67c-31 7 -58 11 -80 11h-1c-29 0 -53 -8 -71 -22s-27 -30 -27 -47s4 -31 12 -40c14 -16 33 -28 59 -36s46 -14 63 -20s34 -12 50 -19s30 -15 43 -25c28 -23 42 -53 42 -91
c0 -49 -17 -89 -51 -119c-35 -31 -81 -48 -137 -48s-111 9 -167 28v136h36c9 0 14 -4 16 -13c1 -3 3 -24 6 -65c29 -14 64 -21 105 -21c34 0 61 9 80 26c17 15 26 33 26 52s-3 34 -11 43s-18 17 -31 24s-27 13 -43 18c-45 14 -77 25 -96 33s-33 17 -46 28
c-28 24 -42 55 -42 95c0 42 16 77 48 105c34 30 83 46 146 46z" />
    <glyph glyph-name="exclam" unicode="!" horiz-adv-x="198" 
d="M144 734v-293c0 -15 0 -30 -1 -45s-1 -30 -2 -45s-2 -29 -4 -45s-3 -32 -5 -50h-62c-2 18 -4 34 -6 50s-3 30 -4 45s-1 30 -2 45s-1 30 -1 45v293h87zM35 56c0 9 2 17 5 25s8 15 14 21s12 11 20 14s16 5 25 5s17 -2 25 -5s14 -8 20 -14s11 -13 14 -21s5 -16 5 -25
s-2 -17 -5 -25s-8 -14 -14 -20s-12 -11 -20 -14s-16 -5 -25 -5s-17 2 -25 5s-14 8 -20 14s-11 12 -14 20s-5 16 -5 25z" />
    <glyph glyph-name="at" unicode="@" horiz-adv-x="818" 
d="M585 95c-27 0 -48 6 -65 19s-28 33 -32 60c-20 -28 -42 -48 -65 -60s-47 -18 -74 -18c-20 0 -39 4 -54 11s-27 17 -37 29s-18 27 -23 44s-7 36 -7 56c0 29 5 57 16 87s28 56 50 80s49 43 82 58s69 23 112 23c23 0 44 -2 61 -6s34 -8 49 -15l-48 -185
c-6 -26 -10 -46 -10 -63c0 -12 2 -23 5 -31s7 -14 12 -19s12 -7 19 -9s14 -3 22 -3c17 0 33 4 48 14s28 24 39 41s20 39 27 63s10 51 10 81c0 47 -7 89 -22 124s-37 64 -63 88s-58 42 -94 54s-74 17 -116 17c-46 0 -89 -9 -129 -26s-74 -41 -104 -72s-53 -67 -70 -109
s-26 -88 -26 -137c0 -58 10 -109 28 -153s42 -80 74 -110s70 -52 112 -67s88 -23 137 -23c52 0 97 6 137 17s74 26 103 43c5 3 10 5 14 5c7 0 13 -5 16 -13l13 -34c-37 -25 -78 -43 -125 -57s-99 -21 -158 -21s-114 9 -165 28s-96 46 -133 81s-67 79 -88 130
s-32 109 -32 174c0 37 5 73 14 107s23 67 40 97s37 57 61 82s51 45 80 63s61 31 95 41s69 15 106 15c31 0 62 -3 92 -10s58 -18 85 -31s51 -29 74 -49s43 -43 59 -68s28 -54 37 -85s14 -64 14 -101s-6 -71 -16 -102s-25 -59 -43 -82s-39 -40 -64 -53s-51 -20 -80 -20z
M367 157c11 0 21 2 32 5s21 9 31 18s19 20 27 35s16 33 22 55l39 151c-13 3 -28 4 -44 4c-26 0 -49 -5 -70 -16s-40 -25 -55 -42s-27 -37 -36 -60s-13 -45 -13 -69c0 -25 5 -44 16 -59s29 -22 51 -22z" />
    <glyph glyph-name="hyphen" unicode="-" horiz-adv-x="1024" 
d="M253 487c37 123 138 190 235 198c7 1 13 1 20 1c101 0 195 -66 206 -198c2 -22 3 -44 3 -65c0 -230 -101 -392 -201 -441c-33 -17 -60 -23 -82 -23c-49 0 -73 34 -90 69c-25 50 -96 313 -96 313v3c11 19 19 43 19 70c0 21 -5 44 -14 70v3zM284 328c0 -15 18 -27 41 -27
s42 12 42 27s-19 28 -42 28s-41 -13 -41 -28zM468 328c0 -19 23 -35 51 -35s53 16 53 35s-25 34 -53 34s-51 -15 -51 -34zM364 35c7 0 14 5 14 12c1 21 5 39 9 41c8 4 36 11 56 11c8 0 15 -1 18 -4c5 -5 6 -17 10 -49c1 -7 7 -11 14 -10s13 8 12 15c-4 25 0 47 -18 64
c-10 10 -24 13 -39 13c-28 0 -59 -13 -67 -18c-21 -12 -21 -42 -22 -61c0 -7 6 -14 13 -14zM269 442l-1 -11c15 -2 100 -75 119 -101l9 6l8 6c-21 29 -103 106 -134 110zM443 333l9 -6c0 1 40 57 64 61h3c24 0 73 -37 74 -38c4 -4 12 -2 16 3c1 1 2 2 2 3
c16 51 35 173 78 197l-5 10l-6 9c-53 -30 -71 -141 -84 -195c-11 8 -47 32 -74 32h-6c-41 -6 -80 -69 -80 -69zM390 188l10 -14c11 7 16 11 19 11s5 -3 9 -9l14 10l14 10c-11 17 -24 22 -36 22c-15 0 -29 -7 -40 -15zM245 346l-1 -6c-1 2 0 4 1 6zM244 340v0v0z" />
    <glyph glyph-name="plus" unicode="+" horiz-adv-x="1024" 
d="M390 188l10 -14c11 7 16 11 19 11s5 -3 9 -9l14 10l14 10c-11 17 -24 22 -36 22c-15 0 -29 -7 -40 -15zM268 487c37 123 138 190 235 198c7 1 13 1 20 1c101 0 195 -66 206 -198c2 -22 3 -44 3 -65c0 -231 -100 -392 -200 -441c-33 -17 -60 -23 -82 -23
c-49 0 -73 34 -90 69c-25 50 -97 313 -97 313v2l1 1c11 19 18 42 18 69c0 21 -4 45 -14 71v1v2zM300 328c0 -15 18 -27 41 -27s42 12 42 27s-19 28 -42 28s-41 -13 -41 -28zM484 328c0 -19 23 -35 51 -35s52 16 52 35s-24 34 -52 34s-51 -15 -51 -34zM378 97l-13 -2
c1 -8 8 -59 22 -68c9 -6 26 -9 44 -9c25 0 53 6 69 15c15 8 17 31 17 47v18l-13 1l-13 1c-2 -20 -3 -43 -6 -45c-10 -7 -33 -11 -53 -11c-14 0 -26 2 -32 6c-3 2 -6 33 -9 49zM283 445l3 -14c42 -13 87 -59 103 -59c2 0 3 0 4 1l8 7l9 6c-24 32 -128 71 -128 71zM461 383
l7 -9s43 28 63 28c28 0 86 -36 86 -36l12 -8l5 14c16 52 27 157 71 181l-5 10l-6 9c-53 -30 -65 -124 -78 -180c-13 8 -57 31 -85 31c-31 0 -76 -30 -76 -30z" />
    <glyph glyph-name="asterisk" unicode="*" horiz-adv-x="376" 
d="M165 442v101c0 6 1 12 2 18s3 12 5 17c-7 -9 -17 -16 -28 -23l-88 -51l-22 39l88 51c12 7 24 11 37 12c-7 1 -13 2 -19 4s-12 5 -18 9l-89 52l23 38l88 -51c12 -7 22 -16 30 -27c-3 6 -6 13 -7 19s-2 13 -2 20v101h45v-101c0 -14 -2 -26 -7 -37c4 5 8 10 13 14s9 7 15 11
l88 51l23 -39l-88 -51c-6 -4 -11 -7 -17 -9s-12 -3 -18 -4c6 -1 12 -2 18 -4s11 -4 17 -8l89 -52l-23 -38l-89 51c-6 4 -11 7 -16 11s-9 9 -13 14c5 -11 8 -24 8 -37v-101h-45z" />
    <glyph glyph-name="parenright" unicode=")" 
d="M189 -182c-4 4 -6 7 -6 11c0 13 23 27 78 55c75 36 119 88 133 156c2 12 4 22 4 31c0 18 -5 30 -15 41c-8 9 -27 13 -27 6c0 -2 5 -13 11 -25c5 -11 7 -17 7 -23c0 -5 -1 -10 -3 -16c-8 -22 -32 -37 -55 -37c-8 0 -16 2 -23 6c-35 18 -52 51 -52 95c0 62 45 103 105 103
c13 0 27 -3 42 -7c36 -11 55 -27 76 -71c15 -30 21 -52 21 -78c0 -16 -2 -34 -8 -55c-23 -90 -72 -146 -156 -182c-26 -11 -65 -18 -95 -18c-18 0 -32 3 -37 8z" />
    <glyph glyph-name="parenleft" unicode="(" 
d="M313 176c-53 24 -85 95 -85 171c0 38 9 78 26 114c37 75 143 149 202 149c10 0 19 -3 26 -7s13 -10 13 -13s-21 -22 -49 -42c-86 -64 -115 -104 -129 -175c-3 -15 -5 -30 -5 -42c0 -46 19 -75 53 -75c9 0 13 2 13 6c0 5 -5 13 -15 26c-11 13 -16 23 -16 33
c0 9 3 17 10 28c11 18 27 26 44 26c27 0 57 -20 76 -57c9 -18 13 -37 13 -55c0 -43 -25 -82 -67 -92c-14 -3 -31 -5 -48 -5c-25 0 -48 3 -62 10v0z" />
    <glyph glyph-name="ampersand" unicode="&#x26;" horiz-adv-x="717" 
d="M322 742c27 0 52 -4 74 -13s41 -21 57 -35s30 -31 39 -50s15 -39 16 -59l-57 -11c-2 0 -4 -1 -5 -1c-4 0 -8 2 -12 4s-7 7 -9 13c-2 9 -6 17 -11 27s-13 19 -21 27s-18 14 -30 19s-25 8 -41 8c-17 0 -32 -3 -46 -8s-25 -13 -35 -23s-18 -22 -23 -35s-8 -27 -8 -42
c0 -12 2 -24 5 -35s7 -22 13 -33s13 -22 22 -34s21 -24 34 -37l211 -215c13 23 23 47 31 72s12 51 15 76c1 6 3 11 6 15s9 6 15 6h56c-1 -39 -7 -78 -19 -116s-29 -73 -52 -106l154 -156h-88c-10 0 -18 2 -24 4s-13 6 -21 14l-73 75c-32 -31 -69 -56 -111 -74
s-88 -27 -138 -27c-27 0 -55 5 -81 14s-49 22 -70 40s-37 39 -50 64s-19 54 -19 86c0 24 4 46 12 67s19 42 33 60s32 34 51 48s41 27 64 37c-21 26 -36 52 -46 77s-15 50 -15 77c0 25 4 48 13 70s23 41 40 57s38 30 62 39s52 14 82 14zM119 203c0 -22 4 -42 12 -59
s19 -31 32 -43s29 -20 46 -26s34 -9 52 -9c38 0 73 7 103 21s57 33 80 56l-216 218c-36 -19 -64 -42 -82 -69s-27 -57 -27 -89z" />
    <glyph glyph-name="percent" unicode="%" horiz-adv-x="783" 
d="M353 557c0 -29 -5 -55 -14 -78s-20 -41 -35 -57s-32 -27 -52 -35s-40 -13 -62 -13c-23 0 -44 5 -64 13s-37 19 -52 35s-26 34 -34 57s-12 49 -12 78s4 55 12 78s19 42 34 58s32 28 52 36s41 12 64 12s44 -4 64 -12s37 -20 52 -36s26 -35 34 -58s13 -49 13 -78zM282 557
c0 23 -3 41 -8 57s-11 29 -19 39s-18 17 -29 21s-23 7 -36 7s-25 -3 -36 -7s-21 -11 -29 -21s-14 -23 -19 -39s-7 -34 -7 -57c0 -22 2 -41 7 -57s11 -28 19 -38s18 -17 29 -21s23 -6 36 -6s25 2 36 6s21 11 29 21s14 22 19 38s8 35 8 57zM609 715c4 6 9 11 14 14s12 5 20 5
h66l-536 -719c-3 -4 -8 -8 -13 -11s-11 -4 -17 -4h-67zM758 173c0 -29 -4 -54 -13 -77s-21 -41 -36 -57s-31 -27 -51 -35s-40 -13 -62 -13c-23 0 -44 5 -64 13s-37 19 -52 35s-26 34 -34 57s-12 48 -12 77s4 56 12 79s19 42 34 58s32 28 52 36s41 12 64 12s44 -4 64 -12
s37 -20 52 -36s26 -35 34 -58s12 -50 12 -79zM688 173c0 23 -3 42 -8 58s-11 28 -19 38s-18 18 -29 22s-23 6 -36 6s-25 -2 -36 -6s-21 -12 -29 -22s-14 -22 -19 -38s-7 -35 -7 -58c0 -22 2 -41 7 -56s11 -28 19 -38s18 -17 29 -21s23 -6 36 -6s25 2 36 6s21 11 29 21
s14 23 19 38s8 34 8 56z" />
    <glyph glyph-name="dollar" unicode="$" horiz-adv-x="527" 
d="M218 -6c-41 4 -79 13 -113 30s-63 38 -88 64l27 42c2 4 6 7 10 9s9 3 14 3c6 0 14 -3 22 -9s18 -15 30 -23s26 -16 43 -24s37 -13 60 -16l19 272c-24 7 -48 15 -71 24s-44 21 -62 36s-33 32 -44 54s-16 50 -16 83c0 25 4 49 14 73s24 45 43 63s42 34 69 46s59 18 94 19
l5 74c1 6 4 12 8 17s10 8 18 8h33l-7 -101c36 -4 67 -14 93 -28s49 -31 69 -51l-22 -33c-7 -10 -14 -16 -23 -16c-5 0 -11 3 -18 7s-15 9 -25 15s-21 10 -34 16s-28 10 -45 12l-17 -247c25 -8 49 -16 73 -25s45 -20 64 -34s35 -32 47 -53s17 -47 17 -78s-5 -60 -15 -87
s-25 -51 -45 -71s-43 -37 -72 -50s-61 -20 -98 -22l-6 -90c-1 -6 -3 -12 -8 -17s-10 -8 -17 -8h-34zM419 208c0 17 -4 32 -10 44s-15 23 -26 32s-23 17 -38 23s-30 13 -47 18l-17 -255c22 2 42 7 59 15s31 17 43 29s21 26 27 42s9 33 9 52zM135 548c0 -16 2 -30 8 -42
s14 -23 24 -32s22 -17 36 -24s29 -14 45 -19l15 231c-22 -2 -41 -6 -57 -13s-30 -16 -40 -26s-19 -21 -24 -34s-7 -27 -7 -41z" />
    <glyph glyph-name="less" unicode="&#x3c;" horiz-adv-x="465" 
d="M31 364l397 205v-65c0 -6 -2 -11 -5 -15s-7 -9 -14 -12l-230 -117c-7 -4 -14 -6 -22 -9s-15 -5 -24 -7c9 -2 16 -4 24 -7s15 -6 22 -9l230 -116c7 -3 11 -8 14 -12s5 -10 5 -15v-65l-397 206v38z" />
    <glyph glyph-name="greater" unicode="&#x3e;" horiz-adv-x="466" 
d="M39 120v65c0 5 2 11 5 15s7 9 14 12l230 116l21 9s15 5 24 7c-9 2 -17 4 -24 7s-14 5 -21 9l-230 117c-7 3 -11 8 -14 12s-5 9 -5 15v65l396 -205v-38z" />
    <glyph glyph-name="N" unicode="N" horiz-adv-x="640" 
d="M194 443c51 56 108 84 172 84c56 0 100 -18 130 -54c29 -35 44 -83 44 -143v-255c33 -6 52 -11 58 -12c11 -2 16 -8 16 -19v-44h-165v330c0 83 -37 124 -110 124c-51 0 -97 -24 -140 -72v-307c2 0 22 -4 59 -12c11 -2 15 -8 15 -19v-44h-239v44c0 11 6 17 16 19l58 12
v369c-33 6 -52 11 -58 12c-10 2 -16 8 -16 19v44h74h54c13 0 22 -6 25 -19z" />
    <glyph glyph-name="J" unicode="J" horiz-adv-x="264" 
d="M226 707c4 -8 5 -17 5 -26s-1 -16 -5 -24s-8 -15 -14 -21s-13 -11 -21 -14s-16 -5 -25 -5s-17 2 -25 5s-14 8 -20 14s-12 13 -15 21s-5 15 -5 24s2 18 5 26s9 15 15 21s12 11 20 14s16 5 25 5s17 -2 25 -5s15 -8 21 -14s10 -13 14 -21zM132 -175c-19 -8 -40 -11 -63 -11
s-45 3 -63 10l4 49c1 7 6 10 16 10h20c27 0 46 7 57 19s17 32 17 60v482c-11 2 -31 6 -59 12c-10 2 -15 8 -15 19v44h74h91v-557c0 -69 -26 -115 -79 -137z" />
    <glyph glyph-name="H" unicode="H" horiz-adv-x="640" 
d="M200 449c49 52 105 78 167 78c56 0 99 -18 129 -54c30 -35 45 -83 45 -143v-255c33 -6 52 -11 58 -12c10 -2 15 -8 15 -19v-44h-164v330c0 83 -37 124 -110 124c-51 0 -97 -24 -140 -72v-307l13 -3c27 -5 42 -8 46 -9c10 -2 15 -8 15 -19v-44h-239v44c0 11 6 17 16 19
l58 12v604c-40 6 -63 11 -69 12c-10 2 -15 8 -15 19v44h175v-305z" />
    <glyph glyph-name="I" unicode="I" horiz-adv-x="296" 
d="M107 636c-6 6 -11 13 -14 21s-5 15 -5 24s2 18 5 26s8 15 14 21s12 11 20 14s16 5 25 5s17 -2 25 -5s15 -8 21 -14s10 -13 14 -21s6 -17 6 -26s-2 -16 -6 -24s-8 -15 -14 -21s-13 -11 -21 -14s-16 -5 -25 -5s-17 2 -25 5s-14 8 -20 14zM256 63c9 -2 15 -10 15 -19v-44
h-239v44c0 9 7 17 16 19s58 12 58 12v369s-49 10 -58 12s-16 9 -16 18v45h165v-444s50 -10 59 -12z" />
    <glyph glyph-name="G" unicode="G" horiz-adv-x="519" 
d="M237 527c23 0 43 -2 63 -7s37 -12 53 -22h141v-34c0 -11 -7 -18 -21 -21l-59 -8c12 -22 17 -48 17 -75c0 -25 -4 -47 -14 -68s-24 -38 -41 -53s-37 -26 -61 -34s-50 -12 -78 -12c-24 0 -47 3 -69 9c-11 -7 -19 -14 -25 -22s-8 -15 -8 -23c0 -12 5 -22 15 -28
s23 -11 39 -14s35 -4 56 -5s41 -1 63 -3s43 -4 64 -8s40 -10 56 -19s29 -20 39 -35s15 -34 15 -58c0 -22 -5 -44 -16 -65s-27 -39 -48 -55s-46 -29 -76 -39s-64 -15 -102 -15s-71 3 -100 11s-52 18 -71 31s-33 26 -42 43s-14 34 -14 52c0 26 8 48 24 66s39 31 67 42
c-15 7 -26 17 -35 28s-13 27 -13 46c0 8 1 15 4 23s6 16 12 24s13 15 21 22s18 14 29 19c-26 14 -45 33 -60 57s-22 51 -22 83c0 25 5 48 15 69s23 38 40 53s38 26 62 34s51 11 80 11zM398 -28c0 13 -3 23 -10 31s-18 14 -30 18s-26 8 -42 10s-33 3 -51 4l-54 3s-36 3 -53 6
c-19 -9 -35 -21 -47 -34s-18 -30 -18 -48c0 -12 3 -22 9 -32s15 -20 27 -27s27 -13 46 -17s41 -6 66 -6s47 2 66 6s37 11 50 19s24 18 31 29s10 24 10 38zM237 253c18 0 34 3 48 8s26 13 36 22s17 20 22 33s7 27 7 42c0 32 -10 57 -29 76s-47 28 -84 28s-65 -9 -84 -28
s-29 -44 -29 -76c0 -15 2 -29 7 -42s12 -24 22 -33s21 -17 35 -22s31 -8 49 -8z" />
    <glyph glyph-name="F" unicode="F" horiz-adv-x="380" 
d="M304 674c-70 0 -104 -39 -104 -118v-48h150v-66h-147v-367c40 -7 63 -11 68 -12c10 -2 15 -8 15 -19v-44h-254v44c0 11 5 17 16 19l63 12v366l-57 6c-16 4 -25 12 -25 24v37h82v51c0 59 16 104 48 137c32 32 75 48 130 48c23 0 45 -3 65 -10l-2 -45c0 -7 -4 -12 -9 -13
s-13 -2 -23 -2h-16z" />
    <glyph glyph-name="D" unicode="D" horiz-adv-x="578" 
d="M247 528c57 0 105 -21 142 -62v213c-35 5 -57 10 -68 12s-16 8 -16 19v44h175v-679c33 -6 53 -11 59 -12c10 -2 15 -8 15 -19v-44h-128c-13 0 -22 6 -25 19l-8 63c-49 -59 -107 -89 -174 -89c-61 0 -109 22 -143 67c-35 46 -53 113 -53 198c0 79 20 142 60 192
c41 52 95 78 164 78zM249 67c54 0 101 26 140 78v251c-30 41 -69 61 -119 61s-88 -18 -114 -52s-39 -83 -39 -147c0 -98 25 -159 76 -181c16 -7 35 -10 56 -10z" />
    <glyph glyph-name="C" unicode="C" horiz-adv-x="463" 
d="M443 73c-43 -53 -108 -80 -192 -80c-67 0 -120 23 -162 70c-44 48 -66 114 -66 197c0 80 21 144 63 192c44 50 104 75 181 75c40 0 90 -13 153 -38v-135h-41c-10 0 -15 5 -17 15c-1 4 -2 16 -4 38s-3 33 -3 34c-16 5 -29 9 -38 10c-20 3 -38 4 -57 4s-37 -4 -56 -13
s-35 -22 -48 -39c-26 -34 -40 -82 -40 -143c0 -62 14 -111 41 -146c27 -34 63 -51 110 -51c43 0 81 14 114 43c6 5 13 9 20 9s12 -3 16 -9z" />
    <glyph glyph-name="A" unicode="A" horiz-adv-x="525" 
d="M483 64c9 -2 16 -10 16 -19v-44h-67h-7h-33c-9 0 -16 1 -21 4s-9 9 -11 18l-10 48c-14 -12 -27 -23 -40 -33s-27 -18 -41 -25s-30 -12 -46 -15s-34 -5 -54 -5s-39 2 -57 8s-33 15 -46 26s-23 26 -31 43s-11 37 -11 61c0 21 6 40 17 59s29 36 54 51s58 27 99 36
s90 14 149 14v41c0 41 -9 71 -26 92s-43 31 -77 31c-22 0 -41 -2 -56 -8s-28 -12 -39 -19s-21 -13 -29 -19s-15 -9 -23 -9c-6 0 -12 2 -17 5s-8 7 -11 12l-16 29c29 28 60 48 93 62s70 21 110 21c29 0 54 -4 77 -14s42 -23 57 -40s27 -38 35 -62s11 -51 11 -80v-259
c14 -3 44 -9 51 -10zM343 126v107c-42 0 -78 -3 -107 -8s-54 -11 -72 -20s-32 -19 -40 -31s-13 -25 -13 -39s3 -25 7 -35s10 -19 18 -25c7 -6 17 -11 27 -14s21 -4 33 -4c16 0 31 2 44 5s26 8 38 14s22 12 33 21s22 18 32 29z" />
    <glyph glyph-name="R" unicode="R" horiz-adv-x="442" 
d="M195 413c38 77 90 115 157 115c27 0 50 -7 71 -19l-11 -68c-2 -9 -8 -12 -14 -12s-14 1 -24 4s-24 5 -42 5c-59 0 -104 -36 -133 -108v-255c9 -2 29 -6 59 -12c10 -2 15 -8 15 -19v-44h-239v44c0 11 6 17 16 19l58 12v369c-33 6 -52 11 -58 12c-10 2 -16 8 -16 19v44h74
h52c10 0 17 -2 21 -6s6 -10 7 -19z" />
    <glyph glyph-name="T" unicode="T" horiz-adv-x="371" 
d="M222 -8c-41 0 -72 11 -94 34s-33 56 -33 99v317h-63c-5 0 -10 2 -14 5s-5 8 -5 15v37l85 10l21 161c1 5 2 9 6 12s9 5 15 5h46v-179h148v-66h-148v-311c0 -22 5 -38 16 -49s24 -15 41 -15c10 0 18 0 25 3s13 6 18 9s9 5 13 8s6 4 9 4c5 0 9 -3 13 -9l27 -43
c-16 -15 -35 -27 -57 -35s-45 -12 -69 -12z" />
    <glyph glyph-name="U" unicode="U" horiz-adv-x="621" 
d="M288 65c52 0 99 23 141 71v308c-6 1 -25 6 -58 12c-11 2 -16 8 -16 19v44h74h91v-444c33 -6 52 -11 58 -12c11 -2 16 -8 16 -19v-44h-129c-13 0 -21 6 -24 19l-7 56c-50 -55 -107 -83 -172 -83c-55 0 -99 18 -130 54c-29 34 -44 81 -44 142v256c-33 6 -52 11 -58 12
c-10 2 -16 8 -16 19v44h165v-331c0 -39 9 -69 27 -91s45 -32 82 -32z" />
    <glyph glyph-name="X" unicode="X" horiz-adv-x="584" 
d="M486 73c18 -4 33 -8 45 -10s19 -8 19 -19v-44h-204v44c0 11 5 17 16 19c3 1 12 2 26 5l-100 154c-2 -10 -5 -18 -10 -26l-87 -127c3 -1 7 -1 12 -2c11 -2 17 -4 18 -4c11 -2 16 -8 16 -19v-44h-204v44c0 11 6 17 16 19c5 1 12 3 24 5s20 4 25 5l132 193l-124 179
c-29 6 -47 10 -53 11c-10 2 -15 8 -15 19v44h203v-44c0 -11 -5 -17 -16 -19c-1 0 -8 -2 -21 -5l91 -141c3 10 8 19 14 29l76 111c-4 1 -11 2 -17 3s-10 3 -11 3c-10 2 -15 8 -15 19v44h203v-44c0 -11 -5 -18 -16 -20s-28 -5 -53 -10l-123 -174z" />
    <glyph glyph-name="Y" unicode="Y" horiz-adv-x="610" 
d="M553 519h38v-44c0 -11 -6 -17 -16 -19c-3 -1 -12 -3 -27 -6s-23 -5 -26 -5l-258 -598c-7 -15 -18 -23 -33 -23h-67l95 206l-183 416c-25 5 -40 9 -46 10c-10 2 -16 8 -16 19v44h233v-44c0 -11 -6 -17 -16 -19c-5 -1 -24 -6 -56 -12l115 -271c5 -14 10 -29 14 -46
c6 20 11 36 15 47l113 270c-28 5 -46 10 -56 12s-15 8 -15 19v44h192z" />
    <glyph glyph-name="bracketleft" unicode="[" horiz-adv-x="266" 
d="M57 -148v933h188v-36c0 -8 -2 -14 -7 -18s-10 -6 -18 -6h-86v-813h86c8 0 13 -2 18 -6s7 -10 7 -18v-36h-188z" />
    <glyph glyph-name="backslash" unicode="\" horiz-adv-x="432" 
d="M22 754h38c11 0 22 -3 30 -9s15 -14 19 -25l307 -766h-38c-10 0 -19 3 -29 9s-17 14 -21 26z" />
    <glyph glyph-name="bracketright" unicode="]" horiz-adv-x="265" 
d="M22 -112c0 7 1 12 6 17s11 7 19 7h86v813h-86c-8 0 -14 2 -19 7s-6 10 -6 17v36h188v-933h-188v36z" />
    <glyph glyph-name="slash" unicode="/" horiz-adv-x="420" 
d="M22 668c11 10 22 19 35 28s27 17 42 24s31 12 49 16s37 6 57 6c27 0 52 -4 75 -12s43 -19 60 -33s29 -32 39 -52s15 -44 15 -70s-4 -48 -12 -67s-17 -35 -29 -49s-25 -27 -39 -37s-27 -20 -39 -29s-22 -19 -31 -28s-14 -20 -15 -31l-9 -78h-63l-6 85v6c0 14 4 27 12 38
s17 21 29 31s25 19 38 29s26 20 38 32s21 26 29 41s11 33 11 53c0 15 -2 28 -8 40s-14 22 -24 30s-22 15 -35 19s-28 7 -43 7c-21 0 -39 -3 -54 -8s-28 -10 -38 -16s-18 -12 -24 -17s-12 -8 -16 -8c-9 0 -15 4 -20 12zM122 56c0 9 2 17 5 25s8 15 14 21s12 11 20 14
s16 5 25 5s17 -2 25 -5s14 -8 20 -14s11 -13 14 -21s5 -16 5 -25s-2 -17 -5 -25s-8 -14 -14 -20s-12 -11 -20 -14s-16 -5 -25 -5s-17 2 -25 5s-14 8 -20 14s-11 12 -14 20s-5 16 -5 25z" />
    <glyph glyph-name="n" unicode="n" 
d="M412 -13c-7 3 -14 6 -16 10s-24 15 -46 27c-40 20 -43 20 -121 20c-74 0 -82 -1 -113 -16c-19 -9 -46 -19 -59 -21c-6 -1 -11 -2 -15 -2c-8 0 -11 4 -14 12c0 1 -1 3 -1 4c0 27 62 74 120 91c19 5 38 11 42 12c12 4 5 18 -9 20c-32 5 -51 32 -51 60c0 17 6 34 19 48
c10 12 17 22 17 24s-13 9 -29 16c-37 16 -77 56 -89 90c-4 12 -7 20 -7 27c0 6 2 12 6 20c7 17 13 22 28 22c14 0 25 -8 47 -30c48 -48 65 -56 124 -56c28 0 64 5 77 10c31 11 96 25 117 25c2 0 4 -1 5 -1c4 -2 8 -10 8 -19c0 -12 -5 -22 -19 -31c-53 -33 -84 -47 -117 -54
c-20 -4 -39 -9 -39 -13c0 -5 13 -18 29 -30c26 -20 31 -26 31 -43c0 -20 -11 -33 -49 -59c-7 -5 -11 -8 -11 -11c0 -5 10 -8 32 -10c46 -4 105 -31 141 -67c23 -22 33 -36 33 -47c0 -20 -19 -33 -43 -33c-9 0 -19 1 -28 5v0z" />
    <glyph glyph-name="braceright" unicode="}" horiz-adv-x="284" 
d="M191 218c0 -17 2 -34 5 -51l9 -51s6 -33 9 -50s4 -34 4 -52c0 -24 -4 -45 -11 -65s-18 -37 -32 -51s-31 -26 -52 -34s-46 -12 -74 -12h-27v41c0 7 2 12 7 15s9 4 13 4h11c26 0 47 9 62 26s23 40 23 70c0 19 -2 37 -4 55s-5 35 -8 52s-6 34 -8 51s-4 34 -4 51
c0 13 2 24 6 35s9 21 16 30s16 16 25 22s19 11 30 14c-11 3 -21 9 -30 15s-18 13 -25 22s-12 19 -16 30s-6 23 -6 36c0 17 2 34 4 51s5 33 8 50s6 34 8 52s4 36 4 55c0 29 -8 53 -23 70s-36 26 -62 26h-11c-4 0 -8 2 -13 5s-7 7 -7 14v41h27c28 0 53 -4 74 -12
s38 -19 52 -33s25 -31 32 -51s11 -41 11 -65c0 -18 -1 -36 -4 -53s-6 -33 -9 -50s-6 -33 -9 -50s-5 -34 -5 -51c0 -22 6 -39 18 -53s30 -21 53 -21v-55c-23 0 -41 -6 -53 -20s-18 -31 -18 -53z" />
    <glyph glyph-name="bar" unicode="|" horiz-adv-x="183" 
d="M57 785h70v-961h-70v961z" />
    <glyph glyph-name="braceleft" unicode="{" horiz-adv-x="283" 
d="M93 218c0 22 -6 39 -18 53s-29 20 -52 20v55c23 0 40 7 52 21s18 31 18 53c0 17 -1 34 -4 51s-6 33 -9 50s-6 33 -9 50s-4 35 -4 53c0 24 4 45 11 65s17 37 31 51s32 25 53 33s46 12 74 12h27v-41c0 -7 -3 -11 -8 -14s-9 -5 -13 -5h-10c-26 0 -47 -9 -62 -26
s-23 -41 -23 -70c0 -19 2 -37 4 -55s5 -35 8 -52s6 -33 8 -50s3 -34 3 -51c0 -13 -1 -25 -5 -36s-9 -21 -16 -30s-16 -16 -25 -22s-20 -12 -31 -15c11 -3 22 -8 31 -14s18 -13 25 -22s12 -19 16 -30s5 -22 5 -35c0 -17 -1 -34 -3 -51s-5 -34 -8 -51s-6 -34 -8 -52
s-4 -36 -4 -55c0 -30 8 -53 23 -70s36 -26 62 -26h10c4 0 8 -1 13 -4s8 -8 8 -15v-41h-27c-28 0 -53 4 -74 12s-39 20 -53 34s-24 31 -31 51s-11 41 -11 65c0 18 1 35 4 52s6 33 9 50l9 51s4 34 4 51z" />
    <glyph glyph-name="y" unicode="y" horiz-adv-x="640" 
d="M141 324c-5 4 -10 13 -12 21c0 1 -1 3 -1 4c0 10 11 24 46 61c44 45 54 60 87 129c38 78 71 122 93 122c16 0 33 -14 49 -41c14 -25 79 -207 79 -224c0 -9 4 -14 10 -14c4 0 9 2 14 6c8 6 21 10 29 10c3 0 5 -1 5 -3c0 -1 -5 -12 -9 -23c-10 -24 -31 -38 -55 -38
c-16 0 -19 4 -34 36c-20 42 -53 123 -53 131c0 10 -28 69 -33 69c-12 0 -40 -47 -92 -155c-37 -77 -57 -99 -90 -99c-13 0 -28 4 -33 8zM207 94c-1 2 -1 6 -1 11c0 36 24 130 38 141c7 5 14 7 20 7c16 0 28 -12 28 -32c0 -5 -7 -25 -16 -45s-18 -37 -19 -41s-9 -15 -17 -27
c-9 -14 -18 -22 -24 -22c-4 0 -7 3 -9 8zM413 65c-6 14 -11 72 -11 113c0 20 1 35 4 40c7 13 22 22 33 22c2 0 3 0 5 -1c12 -5 18 -15 18 -38c0 -14 -2 -33 -6 -58c-5 -35 -12 -70 -15 -78c-3 -9 -8 -13 -13 -13c-6 0 -11 4 -15 13zM292 36c0 17 2 39 6 50s7 59 10 105
c3 48 8 89 12 93c7 8 18 12 29 12c17 0 35 -9 35 -24s-17 -87 -29 -123c-6 -18 -13 -42 -15 -55s-7 -29 -13 -37s-11 -22 -14 -32c-3 -14 -7 -20 -11 -20c-6 0 -10 11 -10 31z" />
    <glyph glyph-name="j" unicode="j" 
d="M40 -112c-6 8 -9 16 -9 24c0 17 15 32 47 55c24 17 60 47 78 68c32 37 82 131 82 156c0 6 6 26 14 43s16 44 20 61c3 17 11 55 20 85c8 30 23 92 34 138c10 47 29 116 40 155c11 40 21 89 24 107c3 22 12 38 23 47c11 8 19 19 19 25c0 7 4 15 9 18c7 4 9 1 4 -10
c-3 -9 -9 -54 -13 -101c-5 -47 -15 -120 -24 -161c-64 -335 -85 -416 -120 -493c-7 -14 -13 -30 -13 -34c0 -14 -62 -102 -94 -135c-45 -43 -83 -66 -110 -66c-14 0 -24 6 -31 18v0z" />
    <glyph glyph-name="h" unicode="h" horiz-adv-x="576" 
d="M187 -26c-1 2 -1 5 -1 8c0 11 2 28 7 45c6 22 12 62 14 88s10 74 17 106s16 83 20 114s10 62 14 69s10 38 14 70s14 76 21 99s17 67 23 96c11 55 22 74 43 74c5 0 11 -1 18 -3c22 -7 25 -10 25 -33c0 -14 -5 -47 -11 -73s-15 -72 -20 -101s-14 -67 -19 -85
c-15 -50 -31 -116 -42 -168c-5 -26 -13 -51 -17 -55s-10 -28 -14 -52s-13 -53 -18 -62s-12 -34 -16 -56s-11 -41 -15 -43s-11 -14 -16 -27c-6 -15 -13 -23 -18 -23c-3 0 -7 4 -9 12v0zM383 33c-3 8 -5 29 -5 62c0 56 5 147 15 269c19 225 33 326 47 342c9 10 21 15 33 15
c10 0 19 -3 26 -9c11 -9 15 -20 15 -42c0 -44 -16 -160 -28 -207c-6 -22 -13 -69 -17 -104s-9 -72 -13 -82s-12 -53 -17 -95c-10 -82 -34 -155 -49 -155c-3 0 -5 2 -7 7v-1zM50 98c-1 5 -2 11 -2 18c0 23 7 58 20 94c7 21 13 47 13 58s4 32 10 46s15 46 20 70
c21 96 80 319 91 344c13 28 32 43 50 43c13 0 26 -8 35 -24c5 -9 7 -14 7 -22c0 -10 -3 -23 -11 -49c-8 -28 -18 -55 -22 -60s-11 -23 -15 -40s-31 -98 -59 -181c-73 -212 -80 -231 -87 -240c-4 -4 -10 -22 -15 -38c-6 -21 -15 -32 -23 -32c-5 0 -9 4 -12 13v0z" />
    <glyph glyph-name="g" unicode="g" 
d="M124 148c-3 3 -4 15 -4 28c0 47 43 129 102 195c14 17 37 43 49 61c20 30 22 35 22 69c0 33 -2 38 -17 56c-15 17 -19 20 -42 20c-14 0 -33 -3 -40 -7c-16 -7 -25 -25 -25 -47c0 -16 5 -34 14 -53c7 -14 11 -26 11 -36c0 -13 -7 -23 -22 -28c-3 -1 -6 -2 -8 -2
c-7 0 -12 4 -24 16c-23 22 -36 59 -36 98c0 17 3 34 8 51c6 22 12 30 33 43c23 14 30 16 75 16c41 0 53 -3 74 -14c40 -21 62 -55 62 -98c0 -10 -1 -20 -3 -30c-9 -42 -27 -72 -85 -140c-63 -76 -93 -115 -97 -132c-4 -18 -34 -70 -39 -70c-3 0 -5 1 -8 4v0zM340 613
c-10 11 -15 22 -15 33c0 14 3 18 23 28c38 18 66 33 70 37c5 7 39 26 47 26c1 0 2 -1 2 -1c3 -2 5 -6 5 -10c0 -7 -3 -16 -9 -23c-60 -78 -82 -105 -100 -105c-7 0 -14 6 -23 15v0zM255 663c-10 10 -15 22 -15 32c0 5 1 10 4 14s21 16 43 27s47 25 54 30c8 7 21 10 31 10
c7 0 13 -2 13 -7c0 -4 -11 -23 -25 -41s-28 -39 -32 -44c-7 -13 -39 -37 -50 -37c-4 0 -14 7 -23 16v0z" />
    <glyph glyph-name="w" unicode="w" horiz-adv-x="896" 
d="M312 -108c-25 9 -65 14 -100 14c-26 0 -49 -3 -63 -8c-16 -7 -30 -11 -42 -11c-14 0 -27 5 -41 14c-22 14 -34 40 -34 65c0 19 6 37 20 50c19 18 81 42 107 42c21 0 99 -24 113 -35c4 -3 30 -14 57 -23l50 -17l77 24c42 13 86 24 98 24s50 -14 85 -31
c51 -24 84 -35 112 -35c13 0 25 2 37 7c14 6 27 14 29 18s10 7 18 7c10 0 13 -3 10 -11c-2 -6 -4 -14 -4 -17c0 -16 -51 -61 -81 -71c-14 -5 -23 -7 -34 -7s-24 3 -49 9c-28 7 -60 18 -71 24c-13 7 -27 11 -41 11c-17 0 -34 -5 -53 -13c-38 -17 -127 -41 -153 -41h-1
c-10 0 -31 5 -46 11v0z" />
    <glyph glyph-name="f" unicode="f" 
d="M106 -136c-7 8 -11 18 -11 28c0 23 16 48 43 64c19 11 95 67 107 79c18 18 54 41 63 41c6 0 9 -3 9 -7c0 -5 -3 -11 -9 -18c-15 -19 -41 -55 -69 -91c-59 -78 -87 -107 -107 -107c-11 0 -21 5 -26 11v0zM153 71c-7 11 -11 20 -11 29c0 22 21 42 72 75c60 40 79 54 107 82
c10 10 18 15 25 15c4 0 8 -2 10 -7c1 -1 1 -2 1 -4c0 -17 -36 -67 -113 -156c-35 -42 -46 -49 -63 -49c-13 0 -22 5 -28 15v0zM169 254c-9 10 -13 23 -13 36c0 10 3 20 10 28c6 7 34 26 62 46s68 49 87 64c22 17 39 26 48 26c5 0 8 -3 8 -8c0 -12 -83 -121 -145 -189
c-11 -12 -21 -18 -31 -18c-9 0 -17 5 -26 15v0zM218 458c-8 9 -14 23 -14 31c0 16 26 49 53 64c20 12 94 64 115 83c9 8 18 14 22 14s8 4 12 10c10 12 18 12 18 0c0 -6 -1 -10 -5 -10s-7 -7 -10 -15c-4 -17 -73 -112 -117 -162c-19 -21 -33 -31 -46 -31c-9 0 -18 5 -28 16v0
z" />
    <glyph glyph-name="u" unicode="u" horiz-adv-x="704" 
d="M65 -124c-8 4 -11 16 -11 31c0 16 4 37 13 57c6 16 11 33 11 39c0 5 -12 12 -24 16c-20 6 -22 9 -24 33v7c0 18 6 35 20 66c24 51 53 83 112 122c28 19 39 30 43 47c6 21 27 78 62 168c9 24 21 58 26 76s14 37 18 44s10 22 13 34s9 23 15 27c8 4 21 6 36 6
c17 0 36 -3 45 -10c22 -16 61 -101 85 -187c4 -12 12 -41 19 -64c8 -25 12 -45 12 -70c0 -7 -1 -13 -1 -20c-2 -37 -6 -55 -13 -55c-5 0 -13 11 -23 30c-12 20 -23 45 -27 58s-9 26 -12 30c-4 6 -18 40 -47 121c-12 33 -17 37 -30 37c-16 0 -23 -17 -53 -111
c-4 -16 -15 -37 -20 -49s-10 -35 -11 -51v-9c0 -18 3 -22 17 -28c9 -4 25 -14 34 -18c45 -24 89 -42 108 -45c3 0 6 -1 9 -1c21 0 55 9 96 25c17 6 45 57 60 104c4 13 11 20 18 20c6 0 12 -5 16 -14c2 -6 4 -12 4 -21c0 -10 -2 -24 -5 -43c-8 -46 -10 -50 -47 -90
c-44 -47 -80 -71 -126 -71c-42 0 -92 19 -163 57c-23 12 -38 18 -54 18c-14 0 -28 -5 -48 -14c-52 -23 -101 -77 -101 -112c0 -5 4 -7 8 -7c8 0 18 5 23 13c4 7 12 13 16 13s13 6 20 12s30 19 52 27c20 8 41 11 60 11c18 0 35 -3 48 -11c6 -4 21 -11 33 -16s38 -20 58 -30
s42 -18 54 -18h2c27 0 95 22 110 36c12 10 44 74 51 101c2 10 8 15 14 15c5 0 9 -3 11 -10c2 -5 5 -26 5 -46c0 -44 -21 -91 -63 -133c-38 -38 -70 -58 -110 -58c-41 0 -90 20 -160 60c-21 12 -47 22 -59 22h-1c-45 0 -123 -63 -141 -115c-12 -36 -35 -62 -55 -62
c-9 0 -22 2 -28 6v0z" />
    <glyph glyph-name="d" unicode="d" horiz-adv-x="768" 
d="M126 -62c-44 25 -64 52 -73 101c-3 17 -5 32 -5 47c0 34 9 64 27 96c32 56 142 168 210 213c31 21 72 49 89 61s42 29 55 38s35 27 49 40c56 52 214 144 245 144h3c6 -2 11 -5 11 -7c0 -6 -25 -40 -33 -45c-5 -3 -50 -40 -102 -82c-85 -69 -123 -99 -220 -170
c-17 -12 -37 -27 -45 -33c-16 -12 -114 -110 -140 -141c-31 -37 -46 -73 -46 -115v-11c2 -31 6 -44 16 -51c13 -9 25 -14 38 -14c11 0 21 3 33 9c17 9 26 19 26 35c0 14 -8 34 -22 63c-13 27 -20 44 -20 58c0 12 5 22 15 33c7 8 19 12 32 12c16 0 34 -7 46 -19
c23 -25 51 -90 56 -130c1 -4 1 -8 1 -12c0 -44 -28 -91 -73 -118c-33 -20 -42 -22 -88 -22c-44 0 -56 3 -85 20v0zM213 413c-1 3 -1 6 -1 8c0 16 12 34 30 43c11 5 35 22 52 36s33 26 35 26c7 0 130 77 145 90c6 6 15 9 22 9c8 0 15 -4 15 -10c0 -10 -97 -97 -155 -137
c-80 -56 -113 -77 -129 -77c-7 0 -11 5 -14 12v0zM177 484c-4 8 -6 15 -6 22c0 23 26 44 94 80c98 51 179 83 204 83c5 0 8 -1 8 -4c0 -10 -76 -68 -126 -95c-26 -14 -67 -41 -90 -59c-33 -26 -54 -38 -68 -38c-7 0 -12 4 -16 11v0z" />
    <glyph glyph-name="t" unicode="t" 
d="M299 -98c-12 5 -43 12 -70 16c-19 2 -31 4 -41 4c-16 0 -28 -3 -54 -11c-26 -7 -49 -13 -51 -13s-12 7 -20 16c-10 10 -15 20 -15 31c0 9 4 19 10 30c10 16 20 22 47 22c7 0 15 0 24 -1c10 -1 18 -1 25 -1c13 0 18 2 18 10c0 7 -5 18 -13 36c-27 58 -46 130 -46 168
c0 9 1 15 3 20c3 7 6 10 9 10c5 0 9 -9 15 -28c4 -14 10 -28 12 -31s8 -16 11 -28c7 -28 24 -77 30 -83c2 -2 3 -3 4 -3c7 0 10 22 11 63c0 28 2 66 4 85s6 56 9 83s9 67 11 92c4 36 7 50 18 69c13 22 14 24 18 14c2 -6 4 -13 2 -17s-5 -78 -8 -166c-2 -55 -3 -103 -3 -143
c0 -71 3 -114 9 -114c5 0 20 23 56 80c14 23 32 46 36 52s9 17 13 23c5 10 9 14 13 14c5 0 9 -8 9 -19c0 -8 -2 -18 -6 -28c-4 -11 -11 -28 -15 -39c-11 -32 -40 -103 -54 -126c-8 -14 -13 -25 -13 -32c0 -11 11 -15 36 -15c20 0 66 22 79 38c4 5 11 8 17 8
c8 0 16 -4 16 -12c0 -15 -20 -49 -40 -66c-17 -14 -23 -15 -58 -17c-6 0 -11 -1 -16 -1c-19 0 -28 4 -42 10v0z" />
    <glyph glyph-name="s" unicode="s" horiz-adv-x="448" 
d="M136 -130c-14 17 -32 35 -36 40s-15 21 -24 38s-19 36 -23 42s-15 31 -26 55c-12 27 -18 54 -18 79c0 43 18 82 55 115c24 22 94 51 142 60c52 10 118 48 131 77c6 12 8 25 8 39c0 17 -3 37 -11 63c-10 34 -29 67 -104 175c-4 5 -4 19 -2 30c3 16 19 25 38 25
c7 0 16 -1 24 -5c21 -10 75 -80 98 -128c39 -82 48 -99 48 -137c0 -9 0 -19 -1 -31c-2 -52 -5 -65 -24 -93c-34 -51 -120 -96 -219 -116c-21 -4 -45 -10 -54 -14c-19 -8 -47 -57 -47 -84c0 -36 63 -191 90 -219c4 -4 7 -15 7 -25c0 -11 -4 -17 -11 -17c-9 0 -24 11 -41 31v0
z" />
    <glyph glyph-name="c" unicode="c" horiz-adv-x="768" 
d="M346 -69c-8 2 -36 7 -61 12c-105 22 -157 92 -186 245c-7 34 -10 67 -10 97c0 59 12 108 36 144c22 33 68 71 83 71h1c9 -2 13 -7 13 -15c0 -6 -3 -13 -9 -20s-20 -27 -31 -47l-19 -35v-99c0 -93 1 -100 17 -145c11 -32 20 -50 29 -54c3 -1 5 -2 7 -2c5 0 5 8 6 41
c3 92 28 142 100 200c37 29 42 32 69 32c50 0 104 -31 138 -80c14 -22 17 -25 17 -70v-30v-31c0 -33 1 -43 6 -43c4 0 11 9 15 21s10 26 14 33s12 40 18 75c5 30 7 47 7 63s-2 30 -7 57c-12 68 -29 107 -70 148c-40 40 -81 59 -132 59c-21 0 -44 -3 -69 -9
c-30 -7 -48 -11 -60 -11s-18 4 -24 10c-7 7 -10 15 -10 24c0 16 13 33 32 37c7 2 32 7 58 12c21 5 42 7 62 7c100 0 186 -56 243 -159c25 -47 38 -114 38 -181c0 -65 -12 -130 -35 -179c-8 -16 -13 -31 -13 -34c0 -7 -53 -69 -73 -85c-10 -8 -27 -19 -38 -26
c-29 -17 -104 -34 -146 -34c-6 0 -12 0 -16 1v0zM434 31c28 23 48 65 59 117c4 19 6 32 6 42c0 12 -2 22 -6 37c-12 47 -46 80 -80 80c-4 0 -7 0 -11 -1c-24 -4 -93 -74 -103 -103c-5 -15 -8 -43 -8 -70c0 -22 2 -43 5 -57c4 -15 12 -30 25 -42c19 -17 25 -20 56 -20
c30 0 39 3 57 17v0z" />
    <glyph glyph-name="r" unicode="r" horiz-adv-x="640" 
d="M465 -150c-17 21 -44 65 -58 97c-21 48 -26 70 -30 123c-2 37 -6 68 -10 68s-21 -22 -41 -47c-84 -110 -105 -131 -170 -167c-49 -27 -73 -35 -101 -35c-26 0 -39 5 -39 14c0 8 11 21 34 37c20 14 39 25 41 25c8 0 66 44 80 59c8 7 18 17 23 21c25 17 108 146 119 183
c4 11 11 28 19 39s14 26 14 33s6 22 14 33s14 28 18 39s25 45 48 77c71 100 86 123 99 155c7 19 11 30 11 40c0 13 -7 24 -22 43c-19 24 -28 30 -51 30c-21 0 -31 -6 -43 -23c-7 -11 -11 -20 -11 -30c0 -13 7 -29 22 -54c11 -19 17 -30 17 -40c0 -8 -4 -15 -13 -25
c-10 -11 -19 -16 -29 -16c-20 0 -42 23 -74 74c-13 20 -20 44 -20 68c0 26 8 51 22 72c36 52 66 67 131 67c50 0 59 -3 86 -23c16 -13 40 -37 51 -54c17 -25 20 -37 20 -83c0 -37 -2 -59 -10 -70c-6 -8 -16 -24 -21 -35s-20 -35 -32 -53c-76 -114 -87 -148 -93 -312
c-1 -31 -2 -53 -2 -72c0 -41 4 -63 18 -114c11 -43 25 -89 30 -101s11 -35 11 -52c0 -20 -4 -30 -12 -30c-10 0 -25 13 -46 39v0z" />
    <glyph glyph-name="a" unicode="a" horiz-adv-x="1024" 
d="M500 -69c-23 11 -52 27 -64 36c-31 22 -101 76 -122 93c-117 99 -144 123 -169 150c-32 34 -47 58 -47 83c0 22 11 43 33 72c20 26 38 41 58 49c19 7 31 17 36 29c9 22 19 36 108 146c39 48 78 92 88 99c11 7 34 11 57 11c21 0 42 -3 55 -10c22 -12 118 -81 169 -122
c21 -17 45 -35 53 -41c61 -42 142 -107 156 -126c10 -13 19 -35 21 -50c1 -5 1 -9 1 -14c0 -21 -11 -42 -61 -125c-62 -102 -202 -268 -245 -290c-13 -7 -28 -10 -45 -10c-25 0 -54 7 -82 20v0zM631 52c21 21 38 41 38 44s7 14 15 23c41 45 76 85 86 101c6 10 23 35 38 57
c25 38 35 58 35 75c0 7 -2 13 -5 19c-11 20 -105 98 -117 98h-1c-4 -1 -8 -55 -10 -138c-3 -122 -5 -140 -19 -169c-21 -44 -43 -53 -137 -53c-40 0 -95 5 -121 11s-51 10 -54 10c-1 0 -2 -1 -2 -1c0 -7 32 -37 63 -57c80 -52 92 -57 131 -58c17 0 29 7 60 38v0zM304 196
c-5 22 -8 43 -8 66c0 26 4 54 10 86c6 31 9 54 9 69c0 13 -2 20 -7 20c-12 -1 -53 -47 -70 -78c-36 -67 -46 -85 -46 -96c0 -4 2 -7 3 -10c9 -19 85 -76 101 -76c11 0 12 3 8 19v0zM615 199c21 11 26 25 28 78l2 54l-27 7c-17 4 -39 18 -57 36c-19 18 -34 28 -51 28
c-18 0 -37 -11 -63 -32c-15 -12 -22 -22 -22 -35c0 -14 9 -30 28 -55c21 -27 37 -40 53 -40c10 0 20 5 31 14c21 17 47 30 59 30c2 0 4 0 5 -1c4 -3 6 -8 6 -14c0 -9 -3 -18 -10 -24c-16 -14 -35 -42 -35 -52c0 -1 1 -1 1 -2c1 -2 5 -3 10 -3c11 0 28 4 42 11v0zM441 203
c-12 33 -35 55 -48 55c-7 0 -11 -5 -11 -17c0 -22 5 -31 24 -42c10 -5 19 -8 25 -8c7 0 11 3 11 8c0 1 0 2 -1 4zM642 389c3 6 4 13 4 21c0 19 -8 42 -19 48c-6 3 -22 5 -39 5h-10c-26 -2 -39 -8 -39 -16c0 -6 7 -13 22 -19c13 -5 33 -19 44 -31c13 -14 20 -20 25 -20
c4 0 8 4 12 12zM426 423c6 12 10 19 10 23s-5 5 -15 5c-20 0 -32 -13 -32 -33c0 -11 5 -16 12 -16c8 0 18 7 25 21v0zM596 520c31 6 39 10 39 20c0 7 -3 13 -6 13s-25 15 -49 33c-38 29 -64 43 -88 43c-23 0 -44 -14 -71 -41c-21 -21 -32 -35 -32 -44c0 -12 20 -16 63 -17
s61 -4 67 -12c6 -7 14 -9 23 -6c8 2 32 7 54 11v0z" />
    <glyph glyph-name="grave" unicode="`" horiz-adv-x="277" 
d="M124 742c11 0 20 -1 25 -5s10 -10 15 -18l77 -124h-53c-7 0 -13 2 -17 4s-9 6 -14 11l-120 132h87z" />
    <glyph glyph-name="q" unicode="q" horiz-adv-x="768" 
d="M298 -82c-59 13 -108 52 -138 112c-20 39 -20 43 -20 140c0 84 2 104 13 129c7 16 14 35 14 41c0 14 36 84 60 117c10 13 35 43 57 66s40 47 40 52s-7 25 -15 43c-7 16 -10 30 -10 41c0 15 6 24 17 24c7 0 26 -15 41 -32c20 -23 28 -31 51 -31c11 0 26 2 47 5
c8 1 14 2 19 2c13 0 19 -4 30 -15c10 -10 18 -22 18 -29s-16 -27 -34 -44c-25 -24 -31 -30 -31 -46c0 -5 0 -11 1 -19c0 -6 1 -11 1 -15c0 -17 -3 -28 -12 -41c-12 -19 -29 -28 -45 -28c-19 0 -36 12 -40 36c-2 13 -8 27 -12 29c-1 0 -2 1 -3 1c-17 0 -65 -75 -81 -129
c-5 -18 -13 -39 -17 -46c-10 -17 -17 -82 -17 -130c0 -17 1 -31 3 -41c13 -69 72 -110 135 -110c35 0 73 14 103 43s73 104 94 164c12 34 16 46 16 96c0 21 -1 50 -2 90c-2 75 -7 148 -9 163l-4 27l23 -14c16 -9 25 -21 29 -37c3 -13 12 -41 19 -63c11 -33 12 -59 12 -160
c0 -105 -2 -125 -13 -149c-7 -15 -14 -32 -14 -38s-8 -22 -17 -36s-17 -27 -17 -30s-10 -19 -22 -36c-52 -71 -111 -103 -189 -106h-16c-25 0 -52 2 -65 4v0z" />
    <glyph glyph-name="space" unicode=" " horiz-adv-x="320" 
 />
    <glyph glyph-name="quoteleft" unicode="&#x2018;" horiz-adv-x="256" 
d="M156 476c-22 18 -43 41 -56 62c-18 29 -35 97 -35 139c0 9 1 17 3 23c7 25 28 43 47 43c5 0 9 -1 13 -3c21 -11 30 -23 30 -48c0 -10 -1 -22 -4 -38c-2 -14 -3 -27 -3 -41c0 -46 13 -89 40 -129c7 -10 7 -14 3 -19c-3 -4 -6 -6 -10 -6c-5 0 -13 5 -28 17v0z" />
    <glyph glyph-name="quoteright" unicode="&#x2019;" horiz-adv-x="256" 
d="M156 476c-22 18 -43 41 -56 62c-18 29 -35 97 -35 139c0 9 1 17 3 23c7 25 28 43 47 43c5 0 9 -1 13 -3c21 -11 30 -23 30 -48c0 -10 -1 -22 -4 -38c-2 -14 -3 -27 -3 -41c0 -46 13 -89 40 -129c7 -10 7 -14 3 -19c-3 -4 -6 -6 -10 -6c-5 0 -13 5 -28 17v0z" />
    <glyph glyph-name="quotedblleft" unicode="&#x201c;" 
d="M209 -168c-4 2 -6 6 -6 10c0 8 6 18 17 24c9 4 21 11 26 15c97 61 123 88 145 155c8 24 12 41 12 57c0 13 -3 26 -9 39c-7 15 -11 37 -11 55c0 11 2 21 5 27c3 5 12 11 20 15c6 3 11 4 16 4c17 0 29 -15 42 -47c12 -31 14 -44 14 -90c0 -43 -2 -58 -10 -76
c-5 -12 -10 -25 -10 -28c0 -16 -50 -76 -85 -103c-44 -33 -112 -60 -149 -60c-7 0 -13 1 -17 3v0zM122 -109c-6 3 -12 6 -12 9c0 10 30 36 46 40c8 2 17 5 19 8s10 10 22 15c32 17 81 67 88 93c3 11 5 25 5 40c0 28 -6 59 -15 75c-6 11 -9 20 -9 28c0 12 6 21 18 28
c6 3 12 5 18 5c14 0 28 -9 41 -26c15 -20 25 -66 25 -108c0 -16 -1 -32 -4 -45c-14 -68 -64 -117 -152 -147c-36 -12 -58 -18 -74 -18c-6 0 -11 1 -16 3v0z" />
    <glyph glyph-name="quotedblright" unicode="&#x201d;" 
d="M209 -168c-4 2 -6 6 -6 10c0 8 6 18 17 24c9 4 21 11 26 15c97 61 123 88 145 155c8 24 12 41 12 57c0 13 -3 26 -9 39c-7 15 -11 37 -11 55c0 11 2 21 5 27c3 5 12 11 20 15c6 3 11 4 16 4c17 0 29 -15 42 -47c12 -31 14 -44 14 -90c0 -43 -2 -58 -10 -76
c-5 -12 -10 -25 -10 -28c0 -16 -50 -76 -85 -103c-44 -33 -112 -60 -149 -60c-7 0 -13 1 -17 3v0zM122 -109c-6 3 -12 6 -12 9c0 10 30 36 46 40c8 2 17 5 19 8s10 10 22 15c32 17 81 67 88 93c3 11 5 25 5 40c0 28 -6 59 -15 75c-6 11 -9 20 -9 28c0 12 6 21 18 28
c6 3 12 5 18 5c14 0 28 -9 41 -26c15 -20 25 -66 25 -108c0 -16 -1 -32 -4 -45c-14 -68 -64 -117 -152 -147c-36 -12 -58 -18 -74 -18c-6 0 -11 1 -16 3v0z" />
    <glyph glyph-name="underscore" unicode="_" horiz-adv-x="525" 
d="M464 -84v-62h-404v62h404z" />
    <glyph glyph-name="commas" unicode="&#xe022;" 
d="M209 -168c-4 2 -6 6 -6 10c0 8 6 18 17 24c9 4 21 11 26 15c97 61 123 88 145 155c8 24 12 41 12 57c0 13 -3 26 -9 39c-7 15 -11 37 -11 55c0 11 2 21 5 27c3 5 12 11 20 15c6 3 11 4 16 4c17 0 29 -15 42 -47c12 -31 14 -44 14 -90c0 -43 -2 -58 -10 -76
c-5 -12 -10 -25 -10 -28c0 -16 -50 -76 -85 -103c-44 -33 -112 -60 -149 -60c-7 0 -13 1 -17 3v0zM122 -109c-6 3 -12 6 -12 9c0 10 30 36 46 40c8 2 17 5 19 8s10 10 22 15c32 17 81 67 88 93c3 11 5 25 5 40c0 28 -6 59 -15 75c-6 11 -9 20 -9 28c0 12 6 21 18 28
c6 3 12 5 18 5c14 0 28 -9 41 -26c15 -20 25 -66 25 -108c0 -16 -1 -32 -4 -45c-14 -68 -64 -117 -152 -147c-36 -12 -58 -18 -74 -18c-6 0 -11 1 -16 3v0z" />
    <glyph glyph-name="apo" unicode="&#xe027;" horiz-adv-x="256" 
d="M156 476c-22 18 -43 41 -56 62c-18 29 -35 97 -35 139c0 9 1 17 3 23c7 25 28 43 47 43c5 0 9 -1 13 -3c21 -11 30 -23 30 -48c0 -10 -1 -22 -4 -38c-2 -14 -3 -27 -3 -41c0 -46 13 -89 40 -129c7 -10 7 -14 3 -19c-3 -4 -6 -6 -10 -6c-5 0 -13 5 -28 17v0z" />
    <glyph glyph-name="bigapo" unicode="&#xe028;" 
d="M313 176c-53 24 -85 95 -85 171c0 38 9 78 26 114c37 75 143 149 202 149c10 0 19 -3 26 -7s13 -10 13 -13s-21 -22 -49 -42c-86 -64 -115 -104 -129 -175c-3 -15 -5 -30 -5 -42c0 -46 19 -75 53 -75c9 0 13 2 13 6c0 5 -5 13 -15 26c-11 13 -16 23 -16 33
c0 9 3 17 10 28c11 18 27 26 44 26c27 0 57 -20 76 -57c9 -18 13 -37 13 -55c0 -43 -25 -82 -67 -92c-14 -3 -31 -5 -48 -5c-25 0 -48 3 -62 10v0z" />
    <glyph glyph-name="bigcomma" unicode="&#xe029;" 
d="M189 -182c-4 4 -6 7 -6 11c0 13 23 27 78 55c75 36 119 88 133 156c2 12 4 22 4 31c0 18 -5 30 -15 41c-8 9 -27 13 -27 6c0 -2 5 -13 11 -25c5 -11 7 -17 7 -23c0 -5 -1 -10 -3 -16c-8 -22 -32 -37 -55 -37c-8 0 -16 2 -23 6c-35 18 -52 51 -52 95c0 62 45 103 105 103
c13 0 27 -3 42 -7c36 -11 55 -27 76 -71c15 -30 21 -52 21 -78c0 -16 -2 -34 -8 -55c-23 -90 -72 -146 -156 -182c-26 -11 -65 -18 -95 -18c-18 0 -32 3 -37 8z" />
    <glyph glyph-name="ammoc" unicode="&#xe02c;" 
d="M259 -177c-36 5 -91 24 -114 37c-54 31 -85 67 -109 128c-12 28 -13 37 -13 95c0 70 5 86 28 96c5 2 11 3 16 3c13 0 26 -7 35 -22c7 -11 9 -20 7 -28c-4 -19 -7 -37 -7 -54c0 -58 24 -109 69 -145c22 -18 77 -44 130 -64c16 -5 26 -17 26 -27c0 -4 -2 -8 -5 -11
c-6 -6 -21 -10 -39 -10c-8 0 -16 1 -24 2v0z" />
    <glyph glyph-name="dot" unicode="&#xe02e;" horiz-adv-x="256" 
d="M75 65c-20 12 -36 39 -36 59c0 22 29 51 59 59c10 2 20 4 31 4c42 0 91 -17 91 -41c0 -15 -22 -41 -48 -54c-48 -26 -64 -35 -76 -35c-7 0 -12 3 -21 8v0z" />
    <glyph glyph-name="scoop" unicode="&#xe030;" horiz-adv-x="640" 
d="M233 -55c-45 15 -111 68 -131 105c-4 8 -15 29 -25 46s-19 37 -21 47s-8 30 -12 43c-4 10 -5 21 -5 29s1 14 5 14c1 0 2 -1 4 -3c3 -3 16 -26 28 -51c34 -66 35 -65 58 -93c48 -57 91 -82 142 -82c48 0 107 41 140 96c20 35 45 87 49 107c3 10 7 24 11 30s9 28 13 48
s8 42 12 47s7 24 10 41c5 35 23 56 47 56c18 0 46 -27 46 -45c0 -20 -17 -96 -32 -144c-16 -52 -73 -169 -93 -192c-48 -55 -63 -68 -115 -88c-23 -8 -67 -14 -99 -14c-14 0 -25 1 -32 3v0z" />
    <glyph glyph-name="scoopdot" unicode="&#xe031;" horiz-adv-x="640" 
d="M232 -52c-34 9 -63 28 -91 56c-40 42 -79 108 -86 146c-3 12 -8 28 -12 34c-4 8 -7 17 -4 27l4 15l10 -14c5 -7 17 -26 25 -43s17 -31 19 -33s8 -11 12 -20c25 -44 53 -73 93 -95c25 -14 35 -16 71 -16c34 0 46 2 62 12c28 17 65 53 77 75c5 11 13 24 16 28
c13 23 32 66 36 82c3 11 8 25 12 34s9 30 13 49s8 43 12 55s10 32 13 44c5 23 18 35 39 35c5 0 10 -1 15 -2c22 -6 32 -17 32 -44c0 -9 -1 -19 -3 -32c-7 -43 -33 -136 -42 -153c-4 -5 -15 -31 -27 -55c-52 -112 -113 -165 -202 -185c-21 -5 -36 -7 -50 -7s-27 2 -44 7v0z
M252 93c-9 6 -20 20 -24 30c-3 7 -4 12 -4 17s2 11 5 19c12 28 43 48 74 52c6 1 11 1 15 1c10 0 14 -3 21 -12c5 -8 8 -15 8 -26c0 -5 -1 -11 -2 -18c-4 -33 -18 -54 -42 -66c-9 -5 -16 -8 -24 -8s-17 4 -27 11v0z" />
    <glyph glyph-name="scoopline" unicode="&#xe032;" horiz-adv-x="640" 
d="M196 -36c-76 36 -148 148 -160 248c-2 13 0 23 3 21s14 -22 26 -45c59 -119 128 -180 198 -180c37 0 73 17 109 50c12 12 29 30 34 41s12 23 15 27c20 33 47 106 56 150c4 15 10 40 15 59s13 41 15 53c3 22 18 35 39 35c6 0 12 -1 18 -3c21 -6 29 -14 29 -37
c0 -12 -2 -29 -7 -52c-18 -84 -30 -122 -59 -181c-37 -75 -53 -99 -91 -136c-45 -44 -79 -57 -155 -61c-13 -1 -23 -1 -32 -1c-25 0 -34 3 -53 12v0zM195 104c-15 10 -18 14 -18 32c0 24 8 35 51 58c40 22 66 39 120 81c30 23 45 31 52 31c2 0 3 0 4 -1c5 -4 5 -9 1 -18
c-20 -39 -155 -188 -170 -188c-4 0 -11 -1 -15 -3s-15 3 -25 8v0z" />
    <glyph glyph-name="scooplinedot" unicode="&#xe033;" horiz-adv-x="640" 
d="M228 -53c-35 12 -72 34 -93 58c-42 47 -80 115 -85 151c-2 12 -5 21 -8 23s-5 13 -5 25v24l12 -14c6 -7 17 -26 25 -43c19 -39 49 -82 82 -116c34 -34 74 -53 114 -53c18 0 37 4 54 13c31 16 68 52 85 81c31 57 46 89 50 107c3 11 6 25 10 31s11 29 15 49s10 48 14 61
s8 32 10 40c4 18 28 43 42 43c5 0 18 -8 27 -17c11 -11 15 -15 15 -29c0 -7 -1 -15 -2 -27c-4 -39 -28 -146 -40 -166c-4 -5 -14 -28 -26 -50c-55 -113 -88 -149 -162 -178c-25 -10 -69 -17 -101 -17c-14 0 -25 1 -33 4v0zM220 70c-8 4 -15 12 -15 16c0 5 -2 13 -2 18
c0 13 26 40 62 60c20 12 46 26 58 35s28 21 35 25s17 13 21 18s10 10 14 10s12 5 16 11c6 7 12 10 16 10c6 0 10 -4 10 -12c0 -14 -50 -77 -116 -146c-35 -37 -56 -53 -75 -53c-8 0 -16 3 -24 8v0zM241 238c-15 15 -19 22 -19 42s3 26 21 42c23 21 45 32 63 32
c14 0 26 -7 31 -22c2 -5 3 -13 3 -21s-1 -16 -2 -23c-4 -22 -8 -32 -24 -48c-14 -14 -26 -21 -38 -21c-11 0 -22 6 -35 19v0z" />
    <glyph glyph-name="scoop2lines" unicode="&#xe034;" horiz-adv-x="640" 
d="M228 -52c-74 17 -155 111 -179 210c-4 12 -7 29 -10 41c-2 8 -3 14 -3 19c0 6 2 10 4 10c3 0 7 -4 11 -13c28 -58 62 -118 90 -147c40 -44 84 -65 128 -65c60 0 119 41 159 123c24 48 44 103 51 138c5 28 26 105 31 125c3 8 11 18 22 23c9 4 14 6 20 6c4 0 9 -1 15 -3
c19 -8 28 -18 28 -43c0 -21 -7 -53 -20 -103c-17 -63 -73 -189 -99 -221c-33 -41 -71 -72 -104 -85c-27 -11 -73 -18 -109 -18c-13 0 -26 1 -35 3v0zM196 68c-15 10 -16 15 -16 32c0 25 12 40 64 69c60 35 72 42 113 75c24 20 41 30 49 30c5 0 7 -3 7 -7c0 -3 -1 -5 -2 -9
c-7 -24 -147 -179 -173 -192c-10 -5 -15 -8 -20 -8c-6 0 -11 3 -22 10zM222 233c-11 9 -19 25 -19 37c0 3 0 5 1 7c6 20 18 30 70 59s61 35 112 76c21 17 39 27 48 27c5 0 7 -3 7 -7c0 -15 -68 -98 -149 -180c-20 -20 -29 -25 -43 -25c-10 0 -23 2 -27 6v0z" />
    <glyph glyph-name="bowl" unicode="&#xe035;" horiz-adv-x="640" 
d="M203 -38c-35 17 -74 53 -100 90c-20 29 -51 91 -51 103c0 4 -4 17 -8 29c-4 9 -5 18 -5 25c0 9 2 15 7 15c3 0 11 -16 22 -36c28 -53 53 -92 73 -107c10 -7 23 -20 29 -30c19 -29 63 -46 106 -46c19 0 39 4 56 12c20 9 29 15 29 20c0 2 -2 5 -5 7c-9 7 -93 24 -124 24
c-26 0 -63 6 -69 12c-1 1 -1 2 -1 3c0 6 21 14 49 18c19 2 58 9 86 14s70 12 91 15l40 3l16 26c9 14 16 32 16 37s6 20 12 32s12 36 16 55s9 41 13 52s9 28 9 39c0 13 5 25 17 38c11 13 23 19 33 19c13 0 25 -9 35 -28c4 -8 6 -13 6 -22c0 -8 -2 -19 -4 -36
c-21 -132 -82 -265 -155 -335c-44 -43 -83 -59 -155 -62c-10 0 -18 -1 -25 -1c-27 0 -35 4 -59 15v0z" />
    <glyph glyph-name="bowldot" unicode="&#xe036;" horiz-adv-x="640" 
d="M232 -52c-27 7 -61 29 -86 54c-28 28 -63 78 -69 99c-3 7 -5 16 -9 20c-8 11 -25 79 -25 95c0 3 0 4 1 4c7 0 30 -30 36 -48c12 -32 56 -97 71 -101c5 -2 11 -5 11 -8c0 -12 30 -38 53 -49c18 -8 38 -12 57 -12c22 0 44 5 63 15c18 9 25 13 25 17c0 1 -1 3 -3 4
c-9 8 -94 25 -127 25c-24 0 -63 11 -63 17c0 8 11 12 61 19c28 4 74 12 102 16s63 9 75 12c21 4 25 6 39 34c17 33 30 70 39 109c12 59 16 69 24 97c11 36 12 39 39 43c4 0 7 1 10 1c26 0 37 -15 37 -47c0 -43 -27 -144 -54 -201c-12 -28 -24 -51 -24 -53
c0 -3 -19 -33 -39 -62c-47 -68 -102 -98 -184 -102c-10 0 -19 -1 -28 -1c-15 0 -28 1 -32 3v0zM256 143c-19 9 -29 27 -29 47c0 11 3 23 10 34c12 20 55 46 77 46c14 0 19 -2 26 -20c4 -9 5 -15 5 -23c0 -7 -1 -15 -3 -27c-6 -31 -17 -47 -40 -59c-9 -5 -15 -7 -21 -7
c-7 0 -14 3 -25 9v0z" />
    <glyph glyph-name="bowlline" unicode="&#xe037;" horiz-adv-x="640" 
d="M213 -44c-51 20 -121 96 -134 144c-3 7 -8 18 -12 22s-9 22 -11 37s-5 28 -8 30s-5 11 -5 21c0 15 1 16 8 9s15 -22 57 -98c5 -12 21 -28 33 -39s23 -21 23 -24c0 -11 30 -35 58 -46c15 -6 39 -11 51 -11c28 0 86 20 86 31c0 13 -36 25 -99 30c-81 6 -96 9 -96 18
s8 13 51 17c19 2 45 7 62 11s56 10 87 14s62 9 66 13c19 17 48 96 65 174c19 86 30 106 60 106c9 0 22 -5 31 -13s12 -13 12 -24c0 -6 -1 -14 -2 -26c-7 -68 -51 -200 -84 -252c-4 -4 -10 -16 -14 -25c-31 -57 -85 -100 -145 -120c-28 -9 -52 -13 -74 -13
c-23 0 -44 4 -66 14v0zM228 150c-10 9 -17 23 -17 36c0 4 1 8 2 12c4 8 18 23 37 35c17 12 37 26 45 31s16 10 19 10s19 12 39 26c62 45 70 49 79 49c5 0 8 -2 8 -6c0 -18 -44 -71 -132 -165c-28 -30 -35 -35 -52 -35c-11 0 -24 3 -28 7v0z" />
    <glyph glyph-name="bowllinedot" unicode="&#xe038;" horiz-adv-x="640" 
d="M203 -40c-65 31 -118 101 -152 199c-9 26 -13 42 -13 53c0 5 1 9 3 13c1 2 2 4 4 4c3 0 8 -8 17 -25c9 -16 17 -34 20 -41c9 -28 55 -88 67 -88c4 0 7 -3 7 -7c0 -12 39 -45 64 -55c15 -6 32 -8 49 -8c21 0 41 3 60 11s28 15 28 21c0 3 -3 7 -9 10c-12 5 -76 16 -131 20
c-46 4 -55 7 -55 17c0 9 8 12 51 16c19 2 49 7 69 11s60 10 89 14c52 6 54 7 69 26c9 11 19 31 23 46s12 40 16 53s9 35 13 50c17 81 24 98 38 113c10 11 16 15 23 15c5 0 11 -2 19 -6c17 -8 25 -26 25 -55s-8 -69 -23 -121c-10 -34 -51 -127 -65 -150
c-4 -4 -10 -16 -15 -27c-12 -23 -56 -70 -80 -86c-33 -22 -91 -39 -137 -39c-35 0 -46 4 -74 16v0zM227 151c-4 4 -12 13 -16 22c-2 6 -4 11 -4 16c0 17 12 32 36 47c41 25 61 38 93 59c52 35 56 37 68 48c9 9 33 18 41 18c2 0 3 0 3 -1s-1 -2 -2 -3c-4 -4 -7 -11 -7 -15
c0 -10 -90 -118 -137 -166c-26 -26 -34 -30 -49 -30c-11 0 -22 1 -26 5v0zM216 325c-12 11 -16 16 -16 28c0 4 0 10 1 17c4 33 23 53 59 65c8 2 16 4 23 4c22 0 34 -14 34 -41c0 -8 -1 -16 -3 -26c-8 -40 -34 -63 -61 -63c-12 0 -25 5 -37 16v0z" />
    <glyph glyph-name="bowl2lines" unicode="&#xe039;" horiz-adv-x="640" 
d="M215 -49c-39 12 -79 49 -120 110c-8 12 -15 24 -15 27s-6 15 -11 27s-11 34 -15 49s-6 31 -9 36c-4 6 -1 9 5 9c4 0 16 -14 26 -34c20 -41 35 -64 55 -91c9 -12 13 -17 17 -17c2 0 5 2 8 5c5 4 27 10 47 14s43 6 52 10s44 9 76 13c91 12 96 15 112 45c8 14 14 35 17 47
s8 28 12 34s8 29 12 49s10 45 14 56s9 26 9 31c0 13 23 33 40 33c7 0 19 -6 27 -13c11 -10 14 -16 14 -33v-8c-1 -42 -29 -143 -54 -196c-12 -26 -23 -48 -23 -50s-5 -10 -10 -18s-16 -25 -25 -37c-25 -37 -56 -66 -94 -84c-32 -15 -40 -17 -91 -18h-22c-24 0 -46 1 -54 4v0
zM331 10c11 6 17 13 17 19c0 5 -3 10 -10 14c-11 6 -94 12 -142 12c-17 0 -30 -1 -32 -3c-1 -1 -1 -2 -1 -3c0 -9 32 -32 60 -41c15 -5 34 -7 53 -7c22 0 43 3 55 9v0zM224 145c-9 7 -16 22 -16 35c0 6 2 12 5 16c6 10 53 40 59 40c4 0 11 6 16 11s15 11 21 14s23 13 39 25
c48 38 68 53 78 53c3 0 8 -4 8 -9c0 -13 -69 -99 -125 -157c-27 -28 -43 -40 -58 -40c-9 0 -17 4 -27 12v0zM234 301c-17 9 -24 23 -24 39c0 17 19 34 63 60c43 25 68 43 93 63c38 29 57 43 65 43c3 0 4 -2 4 -6c0 -2 0 -5 -1 -8c-4 -16 -27 -45 -100 -128
c-44 -49 -65 -68 -83 -68c-5 0 -11 2 -17 5v0z" />
    <glyph glyph-name="colona" unicode="&#xe03a;" horiz-adv-x="256" 
d="M91 -124c-8 4 -19 16 -24 24c-4 7 -7 11 -7 15s3 8 8 17c11 17 55 44 72 44c10 0 35 -25 35 -35c0 -4 -5 -19 -11 -32c-7 -17 -16 -27 -28 -33c-10 -5 -17 -8 -23 -8s-12 3 -22 8v0zM108 89c-8 9 -15 21 -15 26c0 28 32 59 65 64c4 1 7 1 10 1c8 0 13 -3 20 -10
c8 -7 13 -16 13 -26c0 -8 -3 -17 -8 -27c-14 -29 -33 -44 -52 -44c-11 0 -23 5 -33 16v0z" />
    <glyph glyph-name="commadot" unicode="&#xe03b;" 
d="M439 -170c-7 3 -20 12 -27 19c-10 9 -14 21 -14 32c0 21 15 41 40 41c29 0 65 -36 65 -62c0 -3 0 -5 -1 -7c-6 -19 -18 -28 -37 -28c-7 0 -16 1 -26 5v0zM154 -148c-5 3 -7 7 -7 12c0 6 5 13 13 15c63 22 122 53 161 84c54 43 80 93 80 155c0 13 -1 26 -3 40
c-3 16 -4 26 -4 33c0 9 2 14 6 21c12 18 25 26 38 26c25 0 48 -30 51 -80v-12c0 -62 -26 -151 -59 -190c-7 -8 -11 -17 -11 -21c0 -17 -101 -70 -159 -82c-23 -6 -47 -8 -67 -8c-18 0 -33 2 -39 7v0z" />
    <glyph glyph-name="stream" unicode="&#xe03d;" horiz-adv-x="768" 
d="M119 -107c-16 6 -27 24 -27 43c0 25 36 103 62 138c48 63 104 95 164 95c24 0 48 -5 73 -15c20 -8 40 -18 45 -22c16 -13 92 -38 116 -38c42 0 77 29 107 88c16 32 25 58 25 70c0 3 -1 5 -3 5c-1 0 -3 -1 -6 -3c-5 -4 -8 -10 -8 -14c0 -11 -66 -66 -93 -80
c-16 -8 -26 -12 -46 -12c-6 0 -13 0 -22 1c-44 3 -111 24 -119 37c-3 4 -11 9 -20 11s-22 9 -31 16c-12 9 -30 13 -49 13c-23 0 -48 -6 -66 -18c-41 -28 -70 -61 -93 -111c-19 -42 -37 -63 -55 -63c-9 0 -19 6 -28 19c-7 10 -10 16 -10 24c0 6 1 13 4 23
c11 39 44 108 64 128c43 44 94 75 141 85c14 3 27 5 40 5c34 0 66 -11 109 -33c28 -15 67 -32 86 -38c17 -5 26 -8 35 -8s18 3 34 9c40 14 48 24 89 104c25 49 34 61 45 61c13 0 19 -8 19 -40c0 -11 -1 -25 -2 -43c-1 -17 -2 -29 -2 -38c0 -14 2 -20 4 -20c4 0 13 -6 21 -14
s11 -12 11 -22c0 -8 -2 -20 -6 -41c-14 -79 -48 -137 -104 -173c-28 -19 -34 -19 -81 -19c-45 0 -54 2 -90 20c-21 12 -41 21 -43 24s-18 12 -36 21c-20 10 -38 15 -55 15c-46 0 -82 -39 -125 -124c-21 -44 -34 -62 -45 -66c-8 -3 -15 -5 -16 -5s-6 2 -13 5v0z" />
    <glyph glyph-name="hook" unicode="&#xe03f;" 
d="M226 -99c-10 7 -15 16 -15 26c0 11 6 23 18 32c11 9 21 13 29 13s16 -4 26 -13c9 -8 14 -13 14 -19s-6 -13 -19 -27c-14 -15 -22 -21 -31 -21c-6 0 -13 3 -22 9zM204 34c-8 11 -16 30 -18 43c-1 5 -1 9 -1 12c0 11 4 18 16 29c10 9 18 14 23 14c3 0 5 -3 5 -7
c0 -3 -1 -6 -2 -10c-1 -3 -1 -5 -1 -8c0 -15 13 -25 25 -25c8 0 16 5 20 15c8 22 12 53 12 84c0 53 -10 108 -29 134c-9 12 -16 25 -16 28s-13 22 -30 44c-49 64 -72 117 -72 171c0 16 2 31 6 47c12 49 43 83 89 95c15 4 27 6 37 6s18 -2 27 -4c33 -9 93 -64 110 -101
c6 -13 9 -20 9 -26s-3 -10 -8 -18c-7 -11 -16 -17 -27 -17c-17 0 -37 15 -59 43s-39 41 -58 41c-7 0 -15 -2 -23 -6c-19 -10 -29 -33 -29 -62c0 -31 11 -70 33 -108c14 -25 29 -52 33 -59s11 -18 16 -24s18 -33 29 -59c16 -40 19 -57 19 -112c0 -54 -2 -71 -17 -107
c-25 -59 -40 -73 -76 -73c-24 0 -31 3 -43 20v0z" />
    <glyph glyph-name="squares" unicode="&#xe061;" horiz-adv-x="1024" 
d="M500 -69c-23 11 -52 27 -64 36c-31 22 -101 76 -122 93c-117 99 -144 123 -169 150c-32 34 -47 58 -47 83c0 22 11 43 33 72c20 26 38 41 58 49c19 7 31 17 36 29c9 22 19 36 108 146c39 48 78 92 88 99c11 7 34 11 57 11c21 0 42 -3 55 -10c22 -12 118 -81 169 -122
c21 -17 45 -35 53 -41c61 -42 142 -107 156 -126c10 -13 19 -35 21 -50c1 -5 1 -9 1 -14c0 -21 -11 -42 -61 -125c-62 -102 -202 -268 -245 -290c-13 -7 -28 -10 -45 -10c-25 0 -54 7 -82 20v0zM631 52c21 21 38 41 38 44s7 14 15 23c41 45 76 85 86 101c6 10 23 35 38 57
c25 38 35 58 35 75c0 7 -2 13 -5 19c-11 20 -105 98 -117 98h-1c-4 -1 -8 -55 -10 -138c-3 -122 -5 -140 -19 -169c-21 -44 -43 -53 -137 -53c-40 0 -95 5 -121 11s-51 10 -54 10c-1 0 -2 -1 -2 -1c0 -7 32 -37 63 -57c80 -52 92 -57 131 -58c17 0 29 7 60 38v0zM304 196
c-5 22 -8 43 -8 66c0 26 4 54 10 86c6 31 9 54 9 69c0 13 -2 20 -7 20c-12 -1 -53 -47 -70 -78c-36 -67 -46 -85 -46 -96c0 -4 2 -7 3 -10c9 -19 85 -76 101 -76c11 0 12 3 8 19v0zM615 199c21 11 26 25 28 78l2 54l-27 7c-17 4 -39 18 -57 36c-19 18 -34 28 -51 28
c-18 0 -37 -11 -63 -32c-15 -12 -22 -22 -22 -35c0 -14 9 -30 28 -55c21 -27 37 -40 53 -40c10 0 20 5 31 14c21 17 47 30 59 30c2 0 4 0 5 -1c4 -3 6 -8 6 -14c0 -9 -3 -18 -10 -24c-16 -14 -35 -42 -35 -52c0 -1 1 -1 1 -2c1 -2 5 -3 10 -3c11 0 28 4 42 11v0zM441 203
c-12 33 -35 55 -48 55c-7 0 -11 -5 -11 -17c0 -22 5 -31 24 -42c10 -5 19 -8 25 -8c7 0 11 3 11 8c0 1 0 2 -1 4zM642 389c3 6 4 13 4 21c0 19 -8 42 -19 48c-6 3 -22 5 -39 5h-10c-26 -2 -39 -8 -39 -16c0 -6 7 -13 22 -19c13 -5 33 -19 44 -31c13 -14 20 -20 25 -20
c4 0 8 4 12 12zM426 423c6 12 10 19 10 23s-5 5 -15 5c-20 0 -32 -13 -32 -33c0 -11 5 -16 12 -16c8 0 18 7 25 21v0zM596 520c31 6 39 10 39 20c0 7 -3 13 -6 13s-25 15 -49 33c-38 29 -64 43 -88 43c-23 0 -44 -14 -71 -41c-21 -21 -32 -35 -32 -44c0 -12 20 -16 63 -17
s61 -4 67 -12c6 -7 14 -9 23 -6c8 2 32 7 54 11v0z" />
    <glyph glyph-name="long6" unicode="&#xe062;" horiz-adv-x="768" 
d="M149 -109c-32 6 -74 30 -96 55c-8 9 -20 33 -29 54c-10 23 -13 37 -13 56c0 7 0 14 1 23c7 72 40 125 145 231c75 76 139 125 263 207c21 14 74 50 118 80s90 59 102 65s37 20 55 30c21 11 45 18 57 18c6 0 9 -1 9 -4c0 -20 -193 -182 -396 -332
c-80 -59 -170 -144 -202 -192c-32 -47 -47 -84 -47 -115c0 -21 6 -39 19 -55c17 -22 23 -26 46 -26c20 0 32 5 45 18c11 11 15 17 15 29c0 5 -1 11 -2 20c-2 18 -10 40 -17 50c-14 18 -20 36 -20 57c0 6 1 13 2 20c3 18 9 25 26 31c8 3 15 4 22 4c37 0 67 -35 91 -106
c9 -28 14 -50 14 -70c0 -19 -4 -35 -12 -54c-26 -60 -91 -98 -160 -98c-12 0 -24 2 -36 4v0z" />
    <glyph glyph-name="jewel" unicode="&#xe063;" horiz-adv-x="768" 
d="M346 -69c-8 2 -36 7 -61 12c-105 22 -157 92 -186 245c-7 34 -10 67 -10 97c0 59 12 108 36 144c22 33 68 71 83 71h1c9 -2 13 -7 13 -15c0 -6 -3 -13 -9 -20s-20 -27 -31 -47l-19 -35v-99c0 -93 1 -100 17 -145c11 -32 20 -50 29 -54c3 -1 5 -2 7 -2c5 0 5 8 6 41
c3 92 28 142 100 200c37 29 42 32 69 32c50 0 104 -31 138 -80c14 -22 17 -25 17 -70v-30v-31c0 -33 1 -43 6 -43c4 0 11 9 15 21s10 26 14 33s12 40 18 75c5 30 7 47 7 63s-2 30 -7 57c-12 68 -29 107 -70 148c-40 40 -81 59 -132 59c-21 0 -44 -3 -69 -9
c-30 -7 -48 -11 -60 -11s-18 4 -24 10c-7 7 -10 15 -10 24c0 16 13 33 32 37c7 2 32 7 58 12c21 5 42 7 62 7c100 0 186 -56 243 -159c25 -47 38 -114 38 -181c0 -65 -12 -130 -35 -179c-8 -16 -13 -31 -13 -34c0 -7 -53 -69 -73 -85c-10 -8 -27 -19 -38 -26
c-29 -17 -104 -34 -146 -34c-6 0 -12 0 -16 1v0zM434 31c28 23 48 65 59 117c4 19 6 32 6 42c0 12 -2 22 -6 37c-12 47 -46 80 -80 80c-4 0 -7 0 -11 -1c-24 -4 -93 -74 -103 -103c-5 -15 -8 -43 -8 -70c0 -22 2 -43 5 -57c4 -15 12 -30 25 -42c19 -17 25 -20 56 -20
c30 0 39 3 57 17v0z" />
    <glyph glyph-name="long62lines" unicode="&#xe064;" horiz-adv-x="768" 
d="M126 -62c-44 25 -64 52 -73 101c-3 17 -5 32 -5 47c0 34 9 64 27 96c32 56 142 168 210 213c31 21 72 49 89 61s42 29 55 38s35 27 49 40c56 52 214 144 245 144h3c6 -2 11 -5 11 -7c0 -6 -25 -40 -33 -45c-5 -3 -50 -40 -102 -82c-85 -69 -123 -99 -220 -170
c-17 -12 -37 -27 -45 -33c-16 -12 -114 -110 -140 -141c-31 -37 -46 -73 -46 -115v-11c2 -31 6 -44 16 -51c13 -9 25 -14 38 -14c11 0 21 3 33 9c17 9 26 19 26 35c0 14 -8 34 -22 63c-13 27 -20 44 -20 58c0 12 5 22 15 33c7 8 19 12 32 12c16 0 34 -7 46 -19
c23 -25 51 -90 56 -130c1 -4 1 -8 1 -12c0 -44 -28 -91 -73 -118c-33 -20 -42 -22 -88 -22c-44 0 -56 3 -85 20v0zM213 413c-1 3 -1 6 -1 8c0 16 12 34 30 43c11 5 35 22 52 36s33 26 35 26c7 0 130 77 145 90c6 6 15 9 22 9c8 0 15 -4 15 -10c0 -10 -97 -97 -155 -137
c-80 -56 -113 -77 -129 -77c-7 0 -11 5 -14 12v0zM177 484c-4 8 -6 15 -6 22c0 23 26 44 94 80c98 51 179 83 204 83c5 0 8 -1 8 -4c0 -10 -76 -68 -126 -95c-26 -14 -67 -41 -90 -59c-33 -26 -54 -38 -68 -38c-7 0 -12 4 -16 11v0z" />
    <glyph glyph-name="ear1" unicode="&#xe065;" 
d="M60 -80c-1 2 -1 4 -1 6c0 13 18 25 73 54c108 57 150 101 172 183c5 18 7 33 7 46c0 24 -8 42 -25 58c-12 11 -20 16 -25 16c-6 0 -10 -5 -13 -14c-4 -9 -2 -15 6 -25s11 -21 11 -32c0 -27 -22 -53 -53 -53c-26 0 -57 20 -71 47c-6 13 -9 31 -9 50c0 24 4 49 13 69l13 30
l-11 21c-20 35 -31 81 -35 141c-1 16 -2 27 -2 36c0 20 4 27 12 40c11 17 23 25 37 25c5 0 11 -1 17 -4c13 -5 20 -15 20 -40c0 -13 -2 -29 -5 -51s-4 -42 -4 -60c0 -39 6 -69 17 -80c9 -9 19 -11 46 -11c52 0 80 -16 108 -60l23 -36v-76c0 -71 -2 -80 -16 -115
c-28 -67 -98 -128 -174 -151c-11 -4 -31 -9 -43 -14c-16 -6 -37 -9 -54 -9c-18 0 -32 3 -34 9v0z" />
    <glyph glyph-name="meteors" unicode="&#xe066;" 
d="M106 -136c-7 8 -11 18 -11 28c0 23 16 48 43 64c19 11 95 67 107 79c18 18 54 41 63 41c6 0 9 -3 9 -7c0 -5 -3 -11 -9 -18c-15 -19 -41 -55 -69 -91c-59 -78 -87 -107 -107 -107c-11 0 -21 5 -26 11v0zM153 71c-7 11 -11 20 -11 29c0 22 21 42 72 75c60 40 79 54 107 82
c10 10 18 15 25 15c4 0 8 -2 10 -7c1 -1 1 -2 1 -4c0 -17 -36 -67 -113 -156c-35 -42 -46 -49 -63 -49c-13 0 -22 5 -28 15v0zM169 254c-9 10 -13 23 -13 36c0 10 3 20 10 28c6 7 34 26 62 46s68 49 87 64c22 17 39 26 48 26c5 0 8 -3 8 -8c0 -12 -83 -121 -145 -189
c-11 -12 -21 -18 -31 -18c-9 0 -17 5 -26 15v0zM218 458c-8 9 -14 23 -14 31c0 16 26 49 53 64c20 12 94 64 115 83c9 8 18 14 22 14s8 4 12 10c10 12 18 12 18 0c0 -6 -1 -10 -5 -10s-7 -7 -10 -15c-4 -17 -73 -112 -117 -162c-19 -21 -33 -31 -46 -31c-9 0 -18 5 -28 16v0
z" />
    <glyph glyph-name="vine2lines" unicode="&#xe067;" 
d="M124 148c-3 3 -4 15 -4 28c0 47 43 129 102 195c14 17 37 43 49 61c20 30 22 35 22 69c0 33 -2 38 -17 56c-15 17 -19 20 -42 20c-14 0 -33 -3 -40 -7c-16 -7 -25 -25 -25 -47c0 -16 5 -34 14 -53c7 -14 11 -26 11 -36c0 -13 -7 -23 -22 -28c-3 -1 -6 -2 -8 -2
c-7 0 -12 4 -24 16c-23 22 -36 59 -36 98c0 17 3 34 8 51c6 22 12 30 33 43c23 14 30 16 75 16c41 0 53 -3 74 -14c40 -21 62 -55 62 -98c0 -10 -1 -20 -3 -30c-9 -42 -27 -72 -85 -140c-63 -76 -93 -115 -97 -132c-4 -18 -34 -70 -39 -70c-3 0 -5 1 -8 4v0zM340 613
c-10 11 -15 22 -15 33c0 14 3 18 23 28c38 18 66 33 70 37c5 7 39 26 47 26c1 0 2 -1 2 -1c3 -2 5 -6 5 -10c0 -7 -3 -16 -9 -23c-60 -78 -82 -105 -100 -105c-7 0 -14 6 -23 15v0zM255 663c-10 10 -15 22 -15 32c0 5 1 10 4 14s21 16 43 27s47 25 54 30c8 7 21 10 31 10
c7 0 13 -2 13 -7c0 -4 -11 -23 -25 -41s-28 -39 -32 -44c-7 -13 -39 -37 -50 -37c-4 0 -14 7 -23 16v0z" />
    <glyph glyph-name="rays" unicode="&#xe068;" horiz-adv-x="576" 
d="M187 -26c-1 2 -1 5 -1 8c0 11 2 28 7 45c6 22 12 62 14 88s10 74 17 106s16 83 20 114s10 62 14 69s10 38 14 70s14 76 21 99s17 67 23 96c11 55 22 74 43 74c5 0 11 -1 18 -3c22 -7 25 -10 25 -33c0 -14 -5 -47 -11 -73s-15 -72 -20 -101s-14 -67 -19 -85
c-15 -50 -31 -116 -42 -168c-5 -26 -13 -51 -17 -55s-10 -28 -14 -52s-13 -53 -18 -62s-12 -34 -16 -56s-11 -41 -15 -43s-11 -14 -16 -27c-6 -15 -13 -23 -18 -23c-3 0 -7 4 -9 12v0zM383 33c-3 8 -5 29 -5 62c0 56 5 147 15 269c19 225 33 326 47 342c9 10 21 15 33 15
c10 0 19 -3 26 -9c11 -9 15 -20 15 -42c0 -44 -16 -160 -28 -207c-6 -22 -13 -69 -17 -104s-9 -72 -13 -82s-12 -53 -17 -95c-10 -82 -34 -155 -49 -155c-3 0 -5 2 -7 7v-1zM50 98c-1 5 -2 11 -2 18c0 23 7 58 20 94c7 21 13 47 13 58s4 32 10 46s15 46 20 70
c21 96 80 319 91 344c13 28 32 43 50 43c13 0 26 -8 35 -24c5 -9 7 -14 7 -22c0 -10 -3 -23 -11 -49c-8 -28 -18 -55 -22 -60s-11 -23 -15 -40s-31 -98 -59 -181c-73 -212 -80 -231 -87 -240c-4 -4 -10 -22 -15 -38c-6 -21 -15 -32 -23 -32c-5 0 -9 4 -12 13v0z" />
    <glyph glyph-name="staff" unicode="&#xe069;" horiz-adv-x="256" 
d="M40 150c-5 9 -8 35 -8 84c0 31 1 71 3 121c8 180 22 256 54 281c12 9 23 13 34 13h7c20 -2 21 -4 23 -26v-5c0 -13 -3 -25 -7 -30c-16 -19 -47 -148 -48 -203c0 -18 -7 -57 -13 -89s-12 -70 -12 -82c0 -37 -14 -70 -25 -70c-3 0 -6 2 -8 6v0zM92 708c-6 11 -13 24 -13 28
s-8 18 -19 30c-13 15 -22 30 -24 49c-1 5 -1 10 -1 13c0 14 5 21 21 38c21 23 24 24 61 24c62 0 101 -32 114 -95c1 -3 1 -7 1 -11c0 -44 -54 -97 -106 -97c-20 0 -24 5 -34 21v0zM155 768c12 10 17 17 17 26c0 3 -1 6 -2 9c-4 17 -27 31 -48 31c-5 0 -10 -1 -15 -3
c-12 -5 -15 -11 -15 -40c0 -19 0 -34 3 -37s8 -4 14 -4c14 0 33 7 46 18z" />
    <glyph glyph-name="streak" unicode="&#xe06a;" 
d="M40 -112c-6 8 -9 16 -9 24c0 17 15 32 47 55c24 17 60 47 78 68c32 37 82 131 82 156c0 6 6 26 14 43s16 44 20 61c3 17 11 55 20 85c8 30 23 92 34 138c10 47 29 116 40 155c11 40 21 89 24 107c3 22 12 38 23 47c11 8 19 19 19 25c0 7 4 15 9 18c7 4 9 1 4 -10
c-3 -9 -9 -54 -13 -101c-5 -47 -15 -120 -24 -161c-64 -335 -85 -416 -120 -493c-7 -14 -13 -30 -13 -34c0 -14 -62 -102 -94 -135c-45 -43 -83 -66 -110 -66c-14 0 -24 6 -31 18v0z" />
    <glyph glyph-name="lambda" unicode="&#xe06b;" 
d="M423 -50c-37 42 -111 153 -147 223c-16 30 -32 57 -36 57c-5 0 -19 -20 -33 -44c-40 -72 -121 -194 -141 -212c-9 -8 -20 -13 -26 -13h-3c-7 3 -11 16 -11 32c0 18 5 39 13 55c7 13 15 35 18 48s11 36 18 51s23 52 36 82s32 69 44 88s27 44 33 55c10 17 74 115 130 197
c22 32 51 58 72 63c4 1 7 2 10 2c9 0 16 -5 29 -18c14 -14 20 -26 20 -38c0 -14 -9 -29 -29 -48c-16 -15 -45 -51 -63 -79c-28 -42 -32 -53 -32 -78v-11c1 -38 5 -49 76 -199c12 -25 22 -50 22 -55s4 -16 9 -23s14 -29 20 -48s16 -45 22 -60c5 -12 8 -24 8 -34
c0 -15 -6 -25 -18 -25c-7 0 -25 15 -41 33v-1z" />
    <glyph glyph-name="zigzag" unicode="&#xe06c;" horiz-adv-x="768" 
d="M416 -98c-19 10 -58 38 -88 63c-48 40 -57 44 -90 47c-5 0 -10 1 -15 1c-20 0 -35 -5 -60 -16s-43 -17 -58 -17c-13 0 -23 5 -30 15c-7 9 -10 18 -10 27c0 26 28 48 85 70c31 12 45 16 71 16c10 0 22 -1 37 -2c13 -1 24 -2 33 -2c40 0 55 11 101 53c6 6 32 28 57 50
s45 44 45 49s-8 12 -18 14s-30 8 -43 14s-40 14 -61 17c-22 4 -43 12 -51 20c-6 6 -10 13 -10 20c0 19 27 44 98 97c89 67 167 140 223 207c26 31 58 56 70 56c1 0 2 0 3 -1s1 -2 1 -3c0 -13 -26 -63 -61 -117c-22 -34 -67 -88 -108 -129l-71 -72l19 -15
c11 -9 35 -20 54 -26c50 -15 88 -39 95 -60c2 -5 3 -9 3 -12c0 -15 -15 -29 -65 -71c-141 -118 -172 -147 -172 -162c0 -20 68 -71 100 -81c11 -3 25 -5 40 -5c6 0 13 0 19 1c36 5 64 28 110 91c15 20 29 36 32 36c4 0 6 -5 6 -12c0 -10 -4 -24 -11 -29
c-6 -5 -10 -14 -10 -21c0 -18 -61 -91 -93 -111c-24 -16 -36 -18 -86 -18c-49 0 -62 3 -91 18v0z" />
    <glyph glyph-name="macaroni" unicode="&#xe06d;" 
d="M361 -100c-19 13 -78 32 -99 32c-10 0 -40 -6 -67 -12c-23 -6 -35 -8 -44 -8c-8 0 -11 2 -17 8c-11 11 -10 12 2 25c7 8 29 23 50 33c26 13 55 19 85 19s61 -7 88 -20c45 -22 60 -37 62 -63v-7c0 -12 -3 -13 -22 -15h-4c-12 0 -27 4 -34 8v0zM176 607
c-42 19 -69 51 -69 79c0 19 8 30 21 30c11 0 27 -8 48 -24c27 -21 36 -25 62 -25h9c20 1 52 6 70 12c16 5 29 7 39 7c13 0 21 -4 21 -13c0 -5 -3 -13 -11 -22c-16 -19 -33 -27 -85 -43c-27 -9 -45 -13 -60 -13s-28 4 -45 12v0z" />
    <glyph glyph-name="sandwich" unicode="&#xe06e;" 
d="M412 -13c-7 3 -14 6 -16 10s-24 15 -46 27c-40 20 -43 20 -121 20c-74 0 -82 -1 -113 -16c-19 -9 -46 -19 -59 -21c-6 -1 -11 -2 -15 -2c-8 0 -11 4 -14 12c0 1 -1 3 -1 4c0 27 62 74 120 91c19 5 38 11 42 12c12 4 5 18 -9 20c-32 5 -51 32 -51 60c0 17 6 34 19 48
c10 12 17 22 17 24s-13 9 -29 16c-37 16 -77 56 -89 90c-4 12 -7 20 -7 27c0 6 2 12 6 20c7 17 13 22 28 22c14 0 25 -8 47 -30c48 -48 65 -56 124 -56c28 0 64 5 77 10c31 11 96 25 117 25c2 0 4 -1 5 -1c4 -2 8 -10 8 -19c0 -12 -5 -22 -19 -31c-53 -33 -84 -47 -117 -54
c-20 -4 -39 -9 -39 -13c0 -5 13 -18 29 -30c26 -20 31 -26 31 -43c0 -20 -11 -33 -49 -59c-7 -5 -11 -8 -11 -11c0 -5 10 -8 32 -10c46 -4 105 -31 141 -67c23 -22 33 -36 33 -47c0 -20 -19 -33 -43 -33c-9 0 -19 1 -28 5v0z" />
    <glyph glyph-name="circle" unicode="&#xe06f;" horiz-adv-x="768" 
d="M279 -58c-124 36 -191 140 -191 297c0 80 12 121 43 165c30 42 91 85 120 85c6 0 9 -5 9 -11c0 -12 -8 -29 -22 -42c-62 -59 -89 -110 -89 -179c0 -21 3 -45 8 -71c14 -75 54 -135 108 -165c29 -16 36 -17 93 -17c55 0 65 2 94 16c50 25 87 75 125 165
c13 31 20 88 20 141c0 51 -6 98 -19 114c-7 9 -12 19 -12 23c0 12 -35 45 -66 64c-22 13 -31 16 -61 16h-15c-40 -1 -52 -4 -94 -22c-28 -12 -41 -17 -50 -17c-5 0 -10 2 -16 5c-18 10 -28 25 -28 40c0 14 9 29 26 39c22 13 94 31 154 37c8 1 14 1 21 1c18 0 33 -4 63 -13
c41 -12 52 -18 80 -45c40 -39 63 -88 75 -160c6 -35 9 -71 9 -106c0 -95 -22 -184 -63 -245c-37 -55 -101 -102 -161 -115c-24 -6 -55 -8 -85 -8c-29 0 -57 2 -76 8v0z" />
    <glyph glyph-name="vine" unicode="&#xe070;" 
d="M44 -98c-3 3 -5 10 -5 18c0 16 6 39 14 58c8 16 20 42 27 58c29 65 85 174 105 203c30 45 27 41 127 153c54 60 76 111 76 177c0 47 -2 55 -17 70c-12 12 -33 18 -55 18c-37 0 -77 -16 -83 -40c-2 -6 -2 -14 -2 -21c0 -25 8 -54 19 -66c13 -14 18 -31 18 -46
c0 -25 -13 -46 -34 -46c-4 0 -8 1 -13 3c-28 11 -78 103 -83 154c-1 6 -1 11 -1 17c0 37 16 63 53 88c28 19 36 21 100 23c13 0 23 1 32 1c37 0 48 -4 77 -19s44 -28 62 -54c17 -24 21 -33 21 -52c0 -7 0 -14 -1 -23c-9 -109 -64 -206 -200 -354
c-73 -79 -121 -145 -163 -225c-14 -26 -29 -52 -34 -58s-10 -18 -13 -26c-3 -10 -10 -15 -17 -15c-3 0 -7 1 -10 4v0z" />
    <glyph glyph-name="q_" unicode="&#xe071;" horiz-adv-x="768" 
d="M298 -82c-59 13 -108 52 -138 112c-20 39 -20 43 -20 140c0 84 2 104 13 129c7 16 14 35 14 41c0 14 36 84 60 117c10 13 35 43 57 66s40 47 40 52s-7 25 -15 43c-7 16 -10 30 -10 41c0 15 6 24 17 24c7 0 26 -15 41 -32c20 -23 28 -31 51 -31c11 0 26 2 47 5
c8 1 14 2 19 2c13 0 19 -4 30 -15c10 -10 18 -22 18 -29s-16 -27 -34 -44c-25 -24 -31 -30 -31 -46c0 -5 0 -11 1 -19c0 -6 1 -11 1 -15c0 -17 -3 -28 -12 -41c-12 -19 -29 -28 -45 -28c-19 0 -36 12 -40 36c-2 13 -8 27 -12 29c-1 0 -2 1 -3 1c-17 0 -65 -75 -81 -129
c-5 -18 -13 -39 -17 -46c-10 -17 -17 -82 -17 -130c0 -17 1 -31 3 -41c13 -69 72 -110 135 -110c35 0 73 14 103 43s73 104 94 164c12 34 16 46 16 96c0 21 -1 50 -2 90c-2 75 -7 148 -9 163l-4 27l23 -14c16 -9 25 -21 29 -37c3 -13 12 -41 19 -63c11 -33 12 -59 12 -160
c0 -105 -2 -125 -13 -149c-7 -15 -14 -32 -14 -38s-8 -22 -17 -36s-17 -27 -17 -30s-10 -19 -22 -36c-52 -71 -111 -103 -189 -106h-16c-25 0 -52 2 -65 4v0z" />
    <glyph glyph-name="swirl" unicode="&#xe072;" horiz-adv-x="640" 
d="M465 -150c-17 21 -44 65 -58 97c-21 48 -26 70 -30 123c-2 37 -6 68 -10 68s-21 -22 -41 -47c-84 -110 -105 -131 -170 -167c-49 -27 -73 -35 -101 -35c-26 0 -39 5 -39 14c0 8 11 21 34 37c20 14 39 25 41 25c8 0 66 44 80 59c8 7 18 17 23 21c25 17 108 146 119 183
c4 11 11 28 19 39s14 26 14 33s6 22 14 33s14 28 18 39s25 45 48 77c71 100 86 123 99 155c7 19 11 30 11 40c0 13 -7 24 -22 43c-19 24 -28 30 -51 30c-21 0 -31 -6 -43 -23c-7 -11 -11 -20 -11 -30c0 -13 7 -29 22 -54c11 -19 17 -30 17 -40c0 -8 -4 -15 -13 -25
c-10 -11 -19 -16 -29 -16c-20 0 -42 23 -74 74c-13 20 -20 44 -20 68c0 26 8 51 22 72c36 52 66 67 131 67c50 0 59 -3 86 -23c16 -13 40 -37 51 -54c17 -25 20 -37 20 -83c0 -37 -2 -59 -10 -70c-6 -8 -16 -24 -21 -35s-20 -35 -32 -53c-76 -114 -87 -148 -93 -312
c-1 -31 -2 -53 -2 -72c0 -41 4 -63 18 -114c11 -43 25 -89 30 -101s11 -35 11 -52c0 -20 -4 -30 -12 -30c-10 0 -25 13 -46 39v0z" />
    <glyph glyph-name="swoosh" unicode="&#xe073;" horiz-adv-x="448" 
d="M136 -130c-14 17 -32 35 -36 40s-15 21 -24 38s-19 36 -23 42s-15 31 -26 55c-12 27 -18 54 -18 79c0 43 18 82 55 115c24 22 94 51 142 60c52 10 118 48 131 77c6 12 8 25 8 39c0 17 -3 37 -11 63c-10 34 -29 67 -104 175c-4 5 -4 19 -2 30c3 16 19 25 38 25
c7 0 16 -1 24 -5c21 -10 75 -80 98 -128c39 -82 48 -99 48 -137c0 -9 0 -19 -1 -31c-2 -52 -5 -65 -24 -93c-34 -51 -120 -96 -219 -116c-21 -4 -45 -10 -54 -14c-19 -8 -47 -57 -47 -84c0 -36 63 -191 90 -219c4 -4 7 -15 7 -25c0 -11 -4 -17 -11 -17c-9 0 -24 11 -41 31v0
z" />
    <glyph glyph-name="spiky" unicode="&#xe074;" 
d="M299 -98c-12 5 -43 12 -70 16c-19 2 -31 4 -41 4c-16 0 -28 -3 -54 -11c-26 -7 -49 -13 -51 -13s-12 7 -20 16c-10 10 -15 20 -15 31c0 9 4 19 10 30c10 16 20 22 47 22c7 0 15 0 24 -1c10 -1 18 -1 25 -1c13 0 18 2 18 10c0 7 -5 18 -13 36c-27 58 -46 130 -46 168
c0 9 1 15 3 20c3 7 6 10 9 10c5 0 9 -9 15 -28c4 -14 10 -28 12 -31s8 -16 11 -28c7 -28 24 -77 30 -83c2 -2 3 -3 4 -3c7 0 10 22 11 63c0 28 2 66 4 85s6 56 9 83s9 67 11 92c4 36 7 50 18 69c13 22 14 24 18 14c2 -6 4 -13 2 -17s-5 -78 -8 -166c-2 -55 -3 -103 -3 -143
c0 -71 3 -114 9 -114c5 0 20 23 56 80c14 23 32 46 36 52s9 17 13 23c5 10 9 14 13 14c5 0 9 -8 9 -19c0 -8 -2 -18 -6 -28c-4 -11 -11 -28 -15 -39c-11 -32 -40 -103 -54 -126c-8 -14 -13 -25 -13 -32c0 -11 11 -15 36 -15c20 0 66 22 79 38c4 5 11 8 17 8
c8 0 16 -4 16 -12c0 -15 -20 -49 -40 -66c-17 -14 -23 -15 -58 -17c-6 0 -11 -1 -16 -1c-19 0 -28 4 -42 10v0z" />
    <glyph glyph-name="hill" unicode="&#xe075;" horiz-adv-x="704" 
d="M65 -124c-8 4 -11 16 -11 31c0 16 4 37 13 57c6 16 11 33 11 39c0 5 -12 12 -24 16c-20 6 -22 9 -24 33v7c0 18 6 35 20 66c24 51 53 83 112 122c28 19 39 30 43 47c6 21 27 78 62 168c9 24 21 58 26 76s14 37 18 44s10 22 13 34s9 23 15 27c8 4 21 6 36 6
c17 0 36 -3 45 -10c22 -16 61 -101 85 -187c4 -12 12 -41 19 -64c8 -25 12 -45 12 -70c0 -7 -1 -13 -1 -20c-2 -37 -6 -55 -13 -55c-5 0 -13 11 -23 30c-12 20 -23 45 -27 58s-9 26 -12 30c-4 6 -18 40 -47 121c-12 33 -17 37 -30 37c-16 0 -23 -17 -53 -111
c-4 -16 -15 -37 -20 -49s-10 -35 -11 -51v-9c0 -18 3 -22 17 -28c9 -4 25 -14 34 -18c45 -24 89 -42 108 -45c3 0 6 -1 9 -1c21 0 55 9 96 25c17 6 45 57 60 104c4 13 11 20 18 20c6 0 12 -5 16 -14c2 -6 4 -12 4 -21c0 -10 -2 -24 -5 -43c-8 -46 -10 -50 -47 -90
c-44 -47 -80 -71 -126 -71c-42 0 -92 19 -163 57c-23 12 -38 18 -54 18c-14 0 -28 -5 -48 -14c-52 -23 -101 -77 -101 -112c0 -5 4 -7 8 -7c8 0 18 5 23 13c4 7 12 13 16 13s13 6 20 12s30 19 52 27c20 8 41 11 60 11c18 0 35 -3 48 -11c6 -4 21 -11 33 -16s38 -20 58 -30
s42 -18 54 -18h2c27 0 95 22 110 36c12 10 44 74 51 101c2 10 8 15 14 15c5 0 9 -3 11 -10c2 -5 5 -26 5 -46c0 -44 -21 -91 -63 -133c-38 -38 -70 -58 -110 -58c-41 0 -90 20 -160 60c-21 12 -47 22 -59 22h-1c-45 0 -123 -63 -141 -115c-12 -36 -35 -62 -55 -62
c-9 0 -22 2 -28 6v0z" />
    <glyph glyph-name="peak" unicode="&#xe076;" horiz-adv-x="768" 
d="M20 -102c-5 10 -9 17 -9 27c0 23 17 60 73 179c8 17 23 49 34 75s28 62 38 83s18 42 18 46s7 23 15 41c22 50 49 140 98 327c21 79 46 115 82 115c8 0 16 -2 25 -5c21 -8 59 -52 74 -88c28 -61 61 -149 71 -185c46 -164 63 -235 68 -280c4 -41 22 -73 40 -73
c4 0 20 15 39 34c21 23 37 33 50 33c7 0 13 -3 18 -10c2 -2 2 -5 2 -9c0 -20 -21 -65 -64 -135c-57 -95 -68 -109 -79 -109c-22 0 -40 16 -44 40c-2 13 -11 55 -21 92c-19 73 -44 171 -58 237c-4 23 -14 54 -19 71s-17 47 -22 68c-14 53 -37 115 -56 153
c-10 20 -15 28 -20 28c-2 0 -5 -1 -7 -3c-5 -4 -10 -16 -10 -22s-8 -32 -16 -58s-26 -81 -39 -124s-28 -95 -36 -116c-45 -127 -56 -154 -69 -182c-8 -17 -14 -36 -14 -41s-8 -29 -19 -52c-34 -74 -46 -101 -55 -128c-11 -33 -34 -52 -55 -52c-13 0 -25 7 -33 23v0z" />
    <glyph glyph-name="worm" unicode="&#xe077;" horiz-adv-x="896" 
d="M312 -108c-25 9 -65 14 -100 14c-26 0 -49 -3 -63 -8c-16 -7 -30 -11 -42 -11c-14 0 -27 5 -41 14c-22 14 -34 40 -34 65c0 19 6 37 20 50c19 18 81 42 107 42c21 0 99 -24 113 -35c4 -3 30 -14 57 -23l50 -17l77 24c42 13 86 24 98 24s50 -14 85 -31
c51 -24 84 -35 112 -35c13 0 25 2 37 7c14 6 27 14 29 18s10 7 18 7c10 0 13 -3 10 -11c-2 -6 -4 -14 -4 -17c0 -16 -51 -61 -81 -71c-14 -5 -23 -7 -34 -7s-24 3 -49 9c-28 7 -60 18 -71 24c-13 7 -27 11 -41 11c-17 0 -34 -5 -53 -13c-38 -17 -127 -41 -153 -41h-1
c-10 0 -31 5 -46 11v0z" />
    <glyph glyph-name="xcross" unicode="&#xe078;" horiz-adv-x="480" 
d="M115 14c-18 8 -23 17 -23 45c0 27 9 35 68 68c35 19 51 29 51 42c0 11 -11 25 -33 51c-44 51 -61 74 -61 93c0 7 3 14 8 22c10 16 28 26 47 26c24 0 36 -11 50 -43c37 -83 51 -106 58 -106c4 0 21 11 35 23c23 19 46 32 55 32c1 0 2 0 3 -1c0 0 1 -1 1 -2
c0 -8 -16 -35 -38 -63c-18 -22 -27 -39 -27 -54c0 -9 3 -18 10 -28c12 -18 29 -54 29 -63c0 -1 -1 -2 -1 -2s-1 -1 -2 -1c-7 0 -33 18 -50 36c-11 11 -18 18 -27 18c-12 0 -26 -14 -53 -45c-33 -38 -53 -54 -75 -54c-8 0 -16 2 -25 6v0z" />
    <glyph glyph-name="peakrays" unicode="&#xe079;" horiz-adv-x="640" 
d="M141 324c-5 4 -10 13 -12 21c0 1 -1 3 -1 4c0 10 11 24 46 61c44 45 54 60 87 129c38 78 71 122 93 122c16 0 33 -14 49 -41c14 -25 79 -207 79 -224c0 -9 4 -14 10 -14c4 0 9 2 14 6c8 6 21 10 29 10c3 0 5 -1 5 -3c0 -1 -5 -12 -9 -23c-10 -24 -31 -38 -55 -38
c-16 0 -19 4 -34 36c-20 42 -53 123 -53 131c0 10 -28 69 -33 69c-12 0 -40 -47 -92 -155c-37 -77 -57 -99 -90 -99c-13 0 -28 4 -33 8zM207 94c-1 2 -1 6 -1 11c0 36 24 130 38 141c7 5 14 7 20 7c16 0 28 -12 28 -32c0 -5 -7 -25 -16 -45s-18 -37 -19 -41s-9 -15 -17 -27
c-9 -14 -18 -22 -24 -22c-4 0 -7 3 -9 8zM413 65c-6 14 -11 72 -11 113c0 20 1 35 4 40c7 13 22 22 33 22c2 0 3 0 5 -1c12 -5 18 -15 18 -38c0 -14 -2 -33 -6 -58c-5 -35 -12 -70 -15 -78c-3 -9 -8 -13 -13 -13c-6 0 -11 4 -15 13zM292 36c0 17 2 39 6 50s7 59 10 105
c3 48 8 89 12 93c7 8 18 12 29 12c17 0 35 -9 35 -24s-17 -87 -29 -123c-6 -18 -13 -42 -15 -55s-7 -29 -13 -37s-11 -22 -14 -32c-3 -14 -7 -20 -11 -20c-6 0 -10 11 -10 31z" />
    <glyph glyph-name="doublezag" unicode="&#xe07a;" horiz-adv-x="640" 
d="M53 -111c-16 6 -28 24 -28 44c0 14 9 26 39 51c105 89 152 135 152 147c0 16 -20 24 -92 38c-55 11 -78 25 -78 48c0 12 38 48 129 123c73 60 141 128 195 195c13 16 23 25 31 25c4 0 7 -3 10 -7c0 -1 1 -2 1 -3c0 -14 -27 -71 -55 -113c-11 -17 -44 -55 -73 -85
c-62 -64 -87 -94 -87 -110c0 -9 8 -14 23 -19c57 -18 124 -47 131 -57c3 -4 4 -8 4 -12c0 -14 -16 -32 -56 -69c-25 -23 -70 -64 -100 -92c-93 -87 -115 -107 -133 -107c-5 0 -9 2 -13 3v0zM238 -58c-8 6 -15 16 -15 23s26 34 57 62c80 70 127 124 127 142
c0 19 -17 28 -97 53c-33 10 -61 21 -63 24c-1 1 -1 3 -1 4c0 15 26 48 54 69c55 40 176 167 214 223c7 11 17 26 23 34s16 25 24 38s24 34 36 47s17 19 21 19c2 0 3 -2 5 -6c1 -2 1 -4 1 -6c0 -8 -2 -19 -7 -29c-6 -13 -11 -28 -11 -33c0 -13 -40 -90 -62 -122
c-42 -60 -85 -115 -123 -154c-24 -25 -34 -37 -34 -44c0 -2 1 -3 2 -4c13 -10 66 -31 103 -39c36 -8 57 -28 57 -52c0 -3 0 -7 -1 -10c-3 -10 -19 -31 -36 -47s-52 -47 -77 -70c-60 -56 -130 -114 -148 -124c-10 -5 -17 -8 -24 -8c-8 0 -16 3 -25 10v0z" />
  </font>
</defs>
</svg>
